<svg width="28" height="28" viewBox="0 0 28 28" fill="none" xmlns="http://www.w3.org/2000/svg">
<g clip-path="url(#clip0_3015_3612)">
<path d="M23.3332 9.33334H19.8332V7.24501C19.8332 4.20001 17.6048 1.48168 14.5715 1.19001C11.0948 0.863344 8.1665 3.59334 8.1665 7.00001V9.33334H4.6665V25.6667H23.3332V9.33334ZM13.9998 19.8333C12.7165 19.8333 11.6665 18.7833 11.6665 17.5C11.6665 16.2167 12.7165 15.1667 13.9998 15.1667C15.2832 15.1667 16.3332 16.2167 16.3332 17.5C16.3332 18.7833 15.2832 19.8333 13.9998 19.8333ZM10.4998 9.33334V7.00001C10.4998 5.06334 12.0632 3.50001 13.9998 3.50001C15.9365 3.50001 17.4998 5.06334 17.4998 7.00001V9.33334H10.4998Z" fill="white"/>
</g>
<defs>
<clipPath id="clip0_3015_3612">
<rect width="28" height="28" fill="white"/>
</clipPath>
</defs>
</svg>
