<svg width="20" height="20" viewBox="0 0 20 20" fill="none" xmlns="http://www.w3.org/2000/svg">
<path fill-rule="evenodd" clip-rule="evenodd" d="M1.875 16.25H18.125C18.2908 16.25 18.4497 16.1842 18.5669 16.0669C18.6842 15.9497 18.75 15.7908 18.75 15.625V5C18.75 4.83424 18.6842 4.67527 18.5669 4.55806C18.4497 4.44085 18.2908 4.375 18.125 4.375H14.0875L13.0188 2.78125C12.9621 2.69527 12.8852 2.62462 12.7947 2.57555C12.7042 2.52648 12.6029 2.50053 12.5 2.5H7.5C7.39706 2.50053 7.29584 2.52648 7.20534 2.57555C7.11484 2.62462 7.03787 2.69527 6.98125 2.78125L5.9125 4.375H1.875C1.70924 4.375 1.55027 4.44085 1.43306 4.55806C1.31585 4.67527 1.25 4.83424 1.25 5V15.625C1.25 15.7908 1.31585 15.9497 1.43306 16.0669C1.55027 16.1842 1.70924 16.25 1.875 16.25ZM17.5 15H2.5V5.625H6.25C6.35294 5.62447 6.45416 5.59852 6.54466 5.54945C6.63516 5.50039 6.71213 5.42973 6.76875 5.34375L7.8375 3.75H12.1625L13.2312 5.34375C13.2879 5.42973 13.3648 5.50039 13.4553 5.54945C13.5458 5.59852 13.6471 5.62447 13.75 5.625H17.5V15ZM7.91661 13.118C8.5333 13.5301 9.25832 13.75 10 13.75C10.9946 13.75 11.9484 13.3549 12.6517 12.6517C13.3549 11.9484 13.75 10.9946 13.75 10C13.75 9.25832 13.5301 8.5333 13.118 7.91661C12.706 7.29993 12.1203 6.81928 11.4351 6.53545C10.7498 6.25163 9.99584 6.17736 9.26841 6.32206C8.54098 6.46675 7.8728 6.8239 7.34835 7.34835C6.8239 7.8728 6.46675 8.54098 6.32206 9.26841C6.17736 9.99584 6.25163 10.7498 6.53545 11.4351C6.81928 12.1203 7.29993 12.706 7.91661 13.118ZM8.61108 7.92133C9.0222 7.64662 9.50555 7.5 10 7.5C10.663 7.5 11.2989 7.76339 11.7678 8.23223C12.2366 8.70108 12.5 9.33696 12.5 10C12.5 10.4945 12.3534 10.9778 12.0787 11.3889C11.804 11.8 11.4135 12.1205 10.9567 12.3097C10.4999 12.4989 9.99723 12.5484 9.51228 12.452C9.02732 12.3555 8.58187 12.1174 8.23223 11.7678C7.8826 11.4181 7.6445 10.9727 7.54804 10.4877C7.45157 10.0028 7.50108 9.50011 7.6903 9.04329C7.87952 8.58648 8.19995 8.19603 8.61108 7.92133Z" fill="#777777"/>
</svg>
