<svg xmlns="http://www.w3.org/2000/svg" viewBox="0 0 16 16" fill="none">
    <path fill-rule="evenodd" clip-rule="evenodd" d="M8 0.5007C4.1339 0.5007 1 3.63456 1 7.50061C0.999408 8.53196 1.22673 9.5507 1.6657 10.484L1.0147 13.6598C0.991523 13.7732 0.996825 13.8906 1.03013 14.0014C1.06344 14.1123 1.12371 14.2131 1.20555 14.295C1.28739 14.3768 1.38824 14.4371 1.49909 14.4704C1.60993 14.5037 1.72731 14.509 1.8407 14.4858L5.0166 13.8348C5.9224 14.2618 6.9346 14.4998 8 14.4998C11.8661 14.4998 15 11.3667 15 7.49991C15 3.63456 11.8661 0.5 8 0.5" fill="fill-current"/>
  </svg>