<svg width="16" height="17" viewBox="0 0 16 17" fill="none" xmlns="http://www.w3.org/2000/svg">
<path d="M3.33301 13.8333V12.4999H12.6663V13.8333H3.33301ZM3.33301 11.4999L2.48301 6.14992C2.46079 6.14992 2.43568 6.15281 2.40768 6.15859C2.37968 6.16436 2.35479 6.16703 2.33301 6.16659C2.05523 6.16659 1.81923 6.06925 1.62501 5.87459C1.43079 5.67992 1.33345 5.44392 1.33301 5.16659C1.33256 4.88925 1.4299 4.65325 1.62501 4.45859C1.82012 4.26392 2.05612 4.16659 2.33301 4.16659C2.6099 4.16659 2.84612 4.26392 3.04168 4.45859C3.23723 4.65325 3.33434 4.88925 3.33301 5.16659C3.33301 5.24436 3.32456 5.31659 3.30768 5.38325C3.29079 5.44992 3.27145 5.51103 3.24968 5.56659L5.33301 6.49992L7.41634 3.64992C7.29412 3.56103 7.19412 3.44436 7.11634 3.29992C7.03856 3.15548 6.99968 2.99992 6.99968 2.83325C6.99968 2.55548 7.09701 2.31925 7.29168 2.12459C7.48634 1.92992 7.72234 1.83281 7.99968 1.83325C8.27701 1.8337 8.51323 1.93103 8.70834 2.12525C8.90345 2.31948 9.00056 2.55548 8.99968 2.83325C8.99968 2.99992 8.96079 3.15548 8.88301 3.29992C8.80523 3.44436 8.70523 3.56103 8.58301 3.64992L10.6663 6.49992L12.7497 5.56659C12.7275 5.51103 12.7079 5.44992 12.691 5.38325C12.6741 5.31659 12.6659 5.24436 12.6663 5.16659C12.6663 4.88881 12.7637 4.65259 12.9583 4.45792C13.153 4.26325 13.389 4.16614 13.6663 4.16659C13.9437 4.16703 14.1799 4.26436 14.375 4.45859C14.5701 4.65281 14.6672 4.88881 14.6663 5.16659C14.6655 5.44436 14.5683 5.68059 14.375 5.87525C14.1817 6.06992 13.9455 6.16703 13.6663 6.16659C13.6441 6.16659 13.6192 6.16392 13.5917 6.15859C13.5641 6.15325 13.539 6.15036 13.5163 6.14992L12.6663 11.4999H3.33301Z" fill="#FF9142"/>
</svg>
