<svg width="26" height="26" viewBox="0 0 26 26" fill="none" xmlns="http://www.w3.org/2000/svg">
<g clip-path="url(#clip0_3997_17940)">
<path d="M2.4759 4.95215H0V26.0004H21.0482V23.5245H2.4759V4.95215Z" fill="black"/>
<path d="M4.95312 0V21.0482H26.0013V0H4.95312ZM15.4757 3.28366C16.726 3.28366 17.8185 3.95215 18.4189 4.95179C18.7315 5.46863 18.9141 6.07213 18.9141 6.71896C18.9141 8.61612 17.3759 10.1543 15.4788 10.1543C13.5816 10.1543 12.0435 8.61612 12.0435 6.71896C12.0435 6.07213 12.2261 5.46863 12.5386 4.95179C13.1391 3.95215 14.2315 3.28366 15.4819 3.28366H15.4757ZM21.0495 17.7646H9.09406C9.09406 14.2395 11.9506 11.3829 15.4757 11.3829C17.8711 11.3829 19.9571 12.7044 21.0464 14.6573C21.5602 15.5765 21.8573 16.638 21.8573 17.7676H21.0464L21.0495 17.7646Z" fill="black"/>
</g>
<defs>
<clipPath id="clip0_3997_17940">
<rect width="26" height="26" fill="white"/>
</clipPath>
</defs>
</svg>
