<svg width="16" height="16" viewBox="0 0 16 16" fill="none" xmlns="http://www.w3.org/2000/svg">
<g id="eye" clip-path="url(#clip0_874_1725)">
<path id="Vector" d="M8.00033 2.66663C4.66699 2.66663 1.82033 4.73996 0.666992 7.66663C1.82033 10.5933 4.66699 12.6666 8.00033 12.6666C11.3337 12.6666 14.1803 10.5933 15.3337 7.66663C14.1803 4.73996 11.3337 2.66663 8.00033 2.66663ZM8.00033 11C6.16033 11 4.66699 9.50663 4.66699 7.66663C4.66699 5.82663 6.16033 4.33329 8.00033 4.33329C9.84033 4.33329 11.3337 5.82663 11.3337 7.66663C11.3337 9.50663 9.84033 11 8.00033 11ZM8.00033 5.66663C6.89366 5.66663 6.00033 6.55996 6.00033 7.66663C6.00033 8.77329 6.89366 9.66663 8.00033 9.66663C9.10699 9.66663 10.0003 8.77329 10.0003 7.66663C10.0003 6.55996 9.10699 5.66663 8.00033 5.66663Z" fill="fill-current"/>
</g>
<defs>
<clipPath id="clip0_874_1725">
<rect width="16" height="16" fill="transparent"/>
</clipPath>
</defs>
</svg>
