<svg width="16" height="16" viewBox="0 0 16 16" fill="none" xmlns="http://www.w3.org/2000/svg">
<g clip-path="url(#clip0_8796_1547)">
<path d="M11.334 4.66699H8.66732V6.00033H11.334C12.434 6.00033 13.334 6.90033 13.334 8.00033C13.334 9.10033 12.434 10.0003 11.334 10.0003H8.66732V11.3337H11.334C13.174 11.3337 14.6673 9.84033 14.6673 8.00033C14.6673 6.16033 13.174 4.66699 11.334 4.66699ZM7.33398 10.0003H4.66732C3.56732 10.0003 2.66732 9.10033 2.66732 8.00033C2.66732 6.90033 3.56732 6.00033 4.66732 6.00033H7.33398V4.66699H4.66732C2.82732 4.66699 1.33398 6.16033 1.33398 8.00033C1.33398 9.84033 2.82732 11.3337 4.66732 11.3337H7.33398V10.0003ZM5.33398 7.33366H10.6673V8.66699H5.33398V7.33366ZM11.334 4.66699H8.66732V6.00033H11.334C12.434 6.00033 13.334 6.90033 13.334 8.00033C13.334 9.10033 12.434 10.0003 11.334 10.0003H8.66732V11.3337H11.334C13.174 11.3337 14.6673 9.84033 14.6673 8.00033C14.6673 6.16033 13.174 4.66699 11.334 4.66699ZM7.33398 10.0003H4.66732C3.56732 10.0003 2.66732 9.10033 2.66732 8.00033C2.66732 6.90033 3.56732 6.00033 4.66732 6.00033H7.33398V4.66699H4.66732C2.82732 4.66699 1.33398 6.16033 1.33398 8.00033C1.33398 9.84033 2.82732 11.3337 4.66732 11.3337H7.33398V10.0003ZM5.33398 7.33366H10.6673V8.66699H5.33398V7.33366Z" fill="currentColor"/>
</g>
<defs>
<clipPath id="clip0_8796_1547">
<rect width="16" height="16" fill="white"/>
</clipPath>
</defs>
</svg>

