<svg width="20" height="21" viewBox="0 0 20 21" fill="none" xmlns="http://www.w3.org/2000/svg">
<g id="iconamoon:comment-fill">
<path id="Vector" fill-rule="evenodd" clip-rule="evenodd" d="M10 3.5007C6.1339 3.5007 3 6.63456 3 10.5006C2.99941 11.532 3.22673 12.5507 3.6657 13.484L3.0147 16.6598C2.99152 16.7732 2.99682 16.8906 3.03013 17.0014C3.06344 17.1123 3.12371 17.2131 3.20555 17.295C3.28739 17.3768 3.38824 17.4371 3.49909 17.4704C3.60993 17.5037 3.72731 17.509 3.8407 17.4858L7.0166 16.8348C7.9224 17.2618 8.9346 17.4998 10 17.4998C13.8661 17.4998 17 14.3667 17 10.4999C17 6.63456 13.8661 3.5 10 3.5" fill="fill-current"/>
</g>
</svg>
