<svg width="20" height="20" viewBox="0 0 20 20" fill="none" xmlns="http://www.w3.org/2000/svg">
<g id="lets-icons:user-duotone">
<path id="Vector" d="M9.83301 10.25C12.0421 10.25 13.833 8.45914 13.833 6.25C13.833 4.04086 12.0421 2.25 9.83301 2.25C7.62387 2.25 5.83301 4.04086 5.83301 6.25C5.83301 8.45914 7.62387 10.25 9.83301 10.25Z" fill="white"/>
<path id="Vector_2" fill-rule="evenodd" clip-rule="evenodd" d="M9.83336 11.25C6.15163 11.25 3.132 13.6699 2.83505 16.7499C2.80897 17.0248 3.03569 17.2498 3.31258 17.2498H16.3541C16.4194 17.2516 16.4843 17.2396 16.5446 17.2148C16.605 17.1899 16.6594 17.1528 16.7044 17.1056C16.7494 17.0585 16.784 17.0025 16.8059 16.9412C16.8278 16.8799 16.8366 16.8147 16.8317 16.7499C16.5347 13.6699 13.5151 11.25 9.83336 11.25Z" fill="white"/>
</g>
</svg>
