<svg width="current" height="current" fill="current" viewBox="0 0 14 14" xmlns="http://www.w3.org/2000/svg">
<g clip-path="url(#clip0_280_18776)">
<path d="M11.6663 4.66661H9.91634V3.62244C9.91634 2.09994 8.80217 0.740777 7.28551 0.594944C5.54717 0.431611 4.08301 1.79661 4.08301 3.49994V4.66661H2.33301V12.8333H11.6663V4.66661ZM6.99967 9.91661C6.35801 9.91661 5.83301 9.39161 5.83301 8.74994C5.83301 8.10828 6.35801 7.58328 6.99967 7.58328C7.64134 7.58328 8.16634 8.10828 8.16634 8.74994C8.16634 9.39161 7.64134 9.91661 6.99967 9.91661ZM5.24967 4.66661V3.49994C5.24967 2.53161 6.03134 1.74994 6.99967 1.74994C7.96801 1.74994 8.74967 2.53161 8.74967 3.49994V4.66661H5.24967Z" fill="fill-current"/>
</g>
<defs>
<clipPath id="clip0_280_18776">
<rect width="14" height="14" fill="white"/>
</clipPath>
</defs>
</svg>
