<svg width="current" height="current" viewBox="0 0 20 21" fill="none" xmlns="http://www.w3.org/2000/svg">
<path d="M15 9.25H13.75V5.5C13.75 4.50544 13.3549 3.55161 12.6517 2.84835C11.9484 2.14509 10.9946 1.75 10 1.75C9.00544 1.75 8.05161 2.14509 7.34835 2.84835C6.64509 3.55161 6.25 4.50544 6.25 5.5V9.25H5C4.66848 9.25 4.35054 9.3817 4.11612 9.61612C3.8817 9.85054 3.75 10.1685 3.75 10.5V18C3.75 18.3315 3.8817 18.6495 4.11612 18.8839C4.35054 19.1183 4.66848 19.25 5 19.25H15C15.3315 19.25 15.6495 19.1183 15.8839 18.8839C16.1183 18.6495 16.25 18.3315 16.25 18V10.5C16.25 10.1685 16.1183 9.85054 15.8839 9.61612C15.6495 9.3817 15.3315 9.25 15 9.25ZM7.5 5.5C7.5 4.83696 7.76339 4.20107 8.23223 3.73223C8.70107 3.26339 9.33696 3 10 3C10.663 3 11.2989 3.26339 11.7678 3.73223C12.2366 4.20107 12.5 4.83696 12.5 5.5V9.25H7.5V5.5ZM15 18H5V10.5H15V18Z" fill="current"/>
</svg>
