<svg width="28" height="28" viewBox="0 0 28 28" fill="none" xmlns="http://www.w3.org/2000/svg">
<g clip-path="url(#clip0_2924_14226)">
<path d="M6.99984 11.6667C5.7165 11.6667 4.6665 12.7167 4.6665 14.0001C4.6665 15.2834 5.7165 16.3334 6.99984 16.3334C8.28317 16.3334 9.33317 15.2834 9.33317 14.0001C9.33317 12.7167 8.28317 11.6667 6.99984 11.6667ZM20.9998 11.6667C19.7165 11.6667 18.6665 12.7167 18.6665 14.0001C18.6665 15.2834 19.7165 16.3334 20.9998 16.3334C22.2832 16.3334 23.3332 15.2834 23.3332 14.0001C23.3332 12.7167 22.2832 11.6667 20.9998 11.6667ZM13.9998 11.6667C12.7165 11.6667 11.6665 12.7167 11.6665 14.0001C11.6665 15.2834 12.7165 16.3334 13.9998 16.3334C15.2832 16.3334 16.3332 15.2834 16.3332 14.0001C16.3332 12.7167 15.2832 11.6667 13.9998 11.6667Z" fill="#898886"/>
</g>
<defs>
<clipPath id="clip0_2924_14226">
<rect width="28" height="28" fill="white"/>
</clipPath>
</defs>
</svg>
