<svg width="20" height="20" viewBox="0 0 20 20" fill="none" xmlns="http://www.w3.org/2000/svg">
<path fill-rule="evenodd" clip-rule="evenodd" d="M3.75 2.5H16.25C16.5815 2.5 16.8995 2.6317 17.1339 2.86612C17.3683 3.10054 17.5 3.41848 17.5 3.75V16.25C17.5 16.5815 17.3683 16.8995 17.1339 17.1339C16.8995 17.3683 16.5815 17.5 16.25 17.5H3.75C3.41848 17.5 3.10054 17.3683 2.86612 17.1339C2.6317 16.8995 2.5 16.5815 2.5 16.25V3.75C2.5 3.41848 2.6317 3.10054 2.86612 2.86612C3.10054 2.6317 3.41848 2.5 3.75 2.5ZM3.75 12.5V16.25H16.25V15L13.125 11.875L12.1313 12.8687C11.897 13.1016 11.5802 13.2322 11.25 13.2322C10.9198 13.2322 10.603 13.1016 10.3687 12.8687L6.875 9.375L3.75 12.5ZM14.0063 10.9875L16.25 13.2312V3.75H3.75V10.7312L5.99375 8.4875C6.22795 8.25469 6.54477 8.12401 6.875 8.12401C7.20523 8.12401 7.52205 8.25469 7.75625 8.4875L11.25 11.9812L12.2437 10.9875C12.478 10.7547 12.7948 10.624 13.125 10.624C13.4552 10.624 13.772 10.7547 14.0063 10.9875ZM12.9167 8.43401C12.6084 8.64003 12.2458 8.75 11.875 8.75C11.3777 8.75 10.9008 8.55246 10.5492 8.20083C10.1975 7.8492 10 7.37228 10 6.875C10 6.50416 10.11 6.14165 10.316 5.83331C10.522 5.52496 10.8149 5.28464 11.1575 5.14273C11.5001 5.00081 11.8771 4.96368 12.2408 5.03603C12.6045 5.10838 12.9386 5.28695 13.2008 5.54918C13.463 5.8114 13.6416 6.14549 13.714 6.50921C13.7863 6.87292 13.7492 7.24992 13.6073 7.59253C13.4654 7.93514 13.225 8.22798 12.9167 8.43401ZM12.2222 6.35533C12.1195 6.28666 11.9986 6.25 11.875 6.25C11.7092 6.25 11.5503 6.31585 11.4331 6.43306C11.3158 6.55027 11.25 6.70924 11.25 6.875C11.25 6.99861 11.2867 7.11945 11.3553 7.22223C11.424 7.32501 11.5216 7.40512 11.6358 7.45243C11.75 7.49973 11.8757 7.51211 11.9969 7.48799C12.1182 7.46388 12.2295 7.40435 12.3169 7.31694C12.4044 7.22954 12.4639 7.11817 12.488 6.99693C12.5121 6.87569 12.4997 6.75003 12.4524 6.63582C12.4051 6.52162 12.325 6.42401 12.2222 6.35533Z" fill="#777777"/>
</svg>
