<svg width="20" height="20" viewBox="0 0 20 20" fill="none" xmlns="http://www.w3.org/2000/svg">
<g id="gridicons:recent">
<path id="Vector" d="M19.1663 10.0001L17.133 12.3168L17.4163 15.3834L14.408 16.0668L12.833 18.7168L9.99967 17.5001L7.16634 18.7251L5.59134 16.0751L2.58301 15.3918L2.86634 12.3168L0.833008 10.0001L2.86634 7.67511L2.58301 4.60845L5.59134 3.93345L7.16634 1.28345L9.99967 2.50011L12.833 1.28345L14.408 3.93345L17.4163 4.61678L17.133 7.68345L19.1663 10.0001ZM16.9413 10.0001L15.4163 8.24178L15.6163 5.91678L13.333 5.41678L12.1497 3.39178L9.99967 4.31678L7.84967 3.39178L6.66634 5.41678L4.38301 5.90845L4.58301 8.23345L3.05801 10.0001L4.58301 11.7501L4.38301 14.0834L6.66634 14.5834L7.84967 16.6084L9.99967 15.6751L12.1497 16.6001L13.333 14.5834L15.6163 14.0751L15.4163 11.7501L16.9413 10.0001ZM9.16634 12.5001H10.833V14.1668H9.16634V12.5001ZM9.16634 5.83345H10.833V10.8334H9.16634V5.83345Z" fill="fill-current"/>
</g>
</svg>
