<svg width="24" height="24" viewBox="0 0 24 24" fill="none" xmlns="http://www.w3.org/2000/svg">
<path d="M11.9996 1.5C14.7843 1.5 17.4553 2.60618 19.4244 4.5752C21.3935 6.54433 22.4996 9.21523 22.4996 12C22.4996 14.0766 21.8837 16.1063 20.73 17.833C19.5763 19.5597 17.9368 20.9065 16.0181 21.7012C14.0996 22.4958 11.9884 22.703 9.95172 22.2979C7.91506 21.8927 6.04415 20.8931 4.57574 19.4248C3.10738 17.9564 2.10691 16.0855 1.70172 14.0488C1.29658 12.012 1.50466 9.90007 2.29938 7.98145C3.09412 6.06298 4.43996 4.42321 6.16657 3.26953C7.89316 2.11588 9.92304 1.50008 11.9996 1.5ZM15.4439 3.68555C13.7994 3.00436 11.9895 2.82558 10.2437 3.17285C8.49818 3.52014 6.89482 4.37733 5.63629 5.63574C4.37762 6.89441 3.51969 8.49831 3.17242 10.2441C2.82517 11.99 3.00394 13.7998 3.68512 15.4443C4.3663 17.0888 5.51963 18.4945 6.99957 19.4834C8.47951 20.4723 10.2197 20.9999 11.9996 21C14.3864 21 16.676 20.052 18.3638 18.3643C20.0517 16.6764 20.9996 14.3869 20.9996 12C20.9996 10.22 20.4719 8.48004 19.483 7C18.494 5.51996 17.0884 4.36673 15.4439 3.68555ZM17.2496 9.31152L10.4996 16.0605L6.74957 12.3096L7.81012 11.25L10.4996 13.9395L16.189 8.25L17.2496 9.31152Z" fill="#CECECC"/>
</svg>
