<svg width="20" height="20" viewBox="0 0 20 20" fill="none" xmlns="http://www.w3.org/2000/svg">
<path d="M8.35294 12.0543L5.61987 9.32129C5.45699 9.15839 5.25224 9.07506 5.00563 9.07129C4.75904 9.06751 4.55053 9.15084 4.3801 9.32129C4.20965 9.49172 4.12442 9.69835 4.12442 9.94118C4.12442 10.184 4.20965 10.3906 4.3801 10.5611L7.60861 13.7896C7.82128 14.0022 8.06939 14.1086 8.35294 14.1086C8.63649 14.1086 8.88459 14.0022 9.09726 13.7896L15.6425 7.24432C15.8054 7.08143 15.8888 6.87669 15.8925 6.63008C15.8963 6.38347 15.813 6.17495 15.6425 6.00452C15.4721 5.83409 15.2655 5.74887 15.0226 5.74887C14.7798 5.74887 14.5732 5.83409 14.4027 6.00452L8.35294 12.0543ZM2.12671 20C1.53244 20 1.02941 19.7941 0.617649 19.3824C0.205883 18.9706 0 18.4676 0 17.8733V2.12671C0 1.53244 0.205883 1.02941 0.617649 0.617649C1.02941 0.205883 1.53244 0 2.12671 0H17.8733C18.4676 0 18.9706 0.205883 19.3824 0.617649C19.7941 1.02941 20 1.53244 20 2.12671V17.8733C20 18.4676 19.7941 18.9706 19.3824 19.3824C18.9706 19.7941 18.4676 20 17.8733 20H2.12671Z" fill="#262524"/>
</svg>
