<svg width="329" height="313" viewBox="0 0 329 313" fill="none" xmlns="http://www.w3.org/2000/svg">
<rect width="329" height="313" rx="10" fill="#F4F4F4"/>
<ellipse cx="223.3" cy="74.4859" rx="33.6382" ry="38.5143" fill="#51514F"/>
<mask id="mask0_2648_22732" style="mask-type:alpha" maskUnits="userSpaceOnUse" x="189" y="35" width="68" height="78">
<ellipse cx="223.3" cy="74.4859" rx="33.6382" ry="38.5143" fill="#7BDAA9"/>
</mask>
<g mask="url(#mask0_2648_22732)">
<g style="mix-blend-mode:soft-light" opacity="0.3">
<path d="M247.415 119.111V120.796L246.975 120.794C246.509 120.789 246.136 120.407 246.141 119.942C246.146 119.477 246.528 119.103 246.993 119.108C247.134 119.109 247.274 119.111 247.415 119.111ZM242.79 118.839L243.627 118.929C244.09 118.974 244.429 119.386 244.385 119.849C244.34 120.313 243.928 120.653 243.465 120.608L242.593 120.514C242.13 120.46 241.8 120.04 241.854 119.578C241.906 119.145 242.277 118.827 242.704 118.833L242.79 118.839ZM238.557 118.107L238.642 118.122L239.464 118.301C239.919 118.396 240.213 118.842 240.119 119.297C240.025 119.753 239.579 120.046 239.123 119.953L238.266 119.765C237.812 119.661 237.528 119.209 237.632 118.755C237.73 118.33 238.133 118.054 238.557 118.107ZM234.511 116.939L234.594 116.962C234.859 117.054 235.125 117.143 235.392 117.229C235.835 117.371 236.079 117.846 235.937 118.29C235.794 118.733 235.319 118.977 234.876 118.834C234.597 118.745 234.319 118.653 234.043 118.557C233.603 118.405 233.37 117.925 233.521 117.485C233.664 117.073 234.095 116.841 234.511 116.939ZM229.569 115.784C229.767 115.363 230.27 115.181 230.691 115.378L231.457 115.728C231.882 115.917 232.074 116.415 231.886 116.84C231.697 117.266 231.199 117.459 230.773 117.27C230.506 117.151 230.239 117.03 229.975 116.906C229.553 116.708 229.372 116.205 229.569 115.784ZM225.817 113.679C226.058 113.281 226.576 113.153 226.975 113.393C227.215 113.538 227.457 113.681 227.7 113.821C228.103 114.053 228.242 114.568 228.011 114.971C227.793 115.35 227.327 115.495 226.937 115.321L226.859 115.282C226.606 115.136 226.354 114.988 226.104 114.837C225.705 114.597 225.577 114.078 225.817 113.679ZM224.159 111.534C224.537 111.806 224.622 112.333 224.351 112.71C224.078 113.088 223.552 113.174 223.174 112.902L224.159 111.534ZM222.301 111.202C222.581 110.83 223.109 110.755 223.48 111.035C223.705 111.203 223.932 111.37 224.159 111.534L223.666 112.217L223.174 112.902C222.937 112.731 222.701 112.558 222.468 112.382C222.096 112.102 222.021 111.574 222.301 111.202ZM219.05 108.383C219.365 108.042 219.899 108.02 220.241 108.334L220.866 108.899C221.215 109.207 221.247 109.741 220.938 110.089C220.649 110.416 220.162 110.465 219.815 110.215L219.748 110.162C219.53 109.968 219.313 109.772 219.099 109.575C218.756 109.259 218.734 108.726 219.05 108.383ZM217.849 105.951C218.165 106.292 218.145 106.825 217.805 107.142C217.463 107.459 216.929 107.439 216.612 107.097C216.414 106.884 216.218 106.667 216.023 106.45L216.652 105.889L217.281 105.328C217.468 105.537 217.658 105.745 217.849 105.951ZM216.091 105.259C216.438 104.95 216.971 104.981 217.281 105.328L216.023 106.45C215.714 106.102 215.744 105.569 216.091 105.259ZM215.131 102.722C215.413 103.092 215.342 103.621 214.972 103.904C214.601 104.186 214.072 104.115 213.79 103.745C213.613 103.513 213.439 103.279 213.267 103.043L213.946 102.545L214.626 102.046C214.792 102.273 214.961 102.499 215.131 102.722ZM213.448 101.865C213.824 101.59 214.351 101.672 214.626 102.046L213.267 103.043C212.992 102.668 213.073 102.14 213.448 101.865ZM211.139 98.2349C211.538 97.9967 212.056 98.1274 212.295 98.5269L212.733 99.2466C212.979 99.6418 212.858 100.163 212.463 100.409C212.068 100.654 211.548 100.533 211.302 100.138C211.148 99.8911 210.996 99.6415 210.847 99.3911C210.609 98.9914 210.739 98.4734 211.139 98.2349ZM210.674 95.561C210.881 95.9775 210.712 96.4839 210.296 96.6919C209.879 96.8998 209.373 96.7304 209.165 96.314L210.674 95.561ZM209.181 94.4038C209.601 94.2042 210.103 94.3834 210.304 94.8032C210.425 95.0571 210.549 95.31 210.674 95.561L209.919 95.937L209.165 96.314C209.035 96.0536 208.907 95.7911 208.781 95.5278C208.582 95.1075 208.76 94.6039 209.181 94.4038ZM208.965 91.6978C209.133 92.1318 208.918 92.621 208.484 92.7896C208.078 92.9474 207.623 92.7676 207.429 92.3872L207.394 92.3081C207.288 92.0369 207.184 91.7635 207.084 91.4897L207.876 91.1997L208.668 90.9087L208.965 91.6978ZM207.586 90.4077C208.023 90.2479 208.507 90.4723 208.668 90.9087L207.084 91.4897C206.924 91.0528 207.149 90.568 207.586 90.4077ZM206.364 86.2827C206.786 86.1707 207.219 86.399 207.37 86.7983L207.396 86.8804C207.469 87.1521 207.543 87.4243 207.62 87.6938C207.748 88.1414 207.489 88.6079 207.041 88.7358C206.593 88.8636 206.127 88.6042 205.999 88.1567L205.767 87.314C205.647 86.8643 205.915 86.4025 206.364 86.2827ZM205.524 82.063C205.954 81.9898 206.364 82.2569 206.479 82.6685L206.497 82.7524L206.646 83.5815C206.733 84.039 206.432 84.4802 205.975 84.5669C205.546 84.648 205.131 84.3887 205.01 83.979L204.989 83.895C204.935 83.6101 204.884 83.3234 204.835 83.0366C204.757 82.5779 205.066 82.1413 205.524 82.063ZM217.936 79.1167C218.401 79.1142 218.78 79.4902 218.783 79.9556C218.786 80.4207 218.411 80.8 217.946 80.8032L217.111 80.8071C216.646 80.8082 216.267 80.4316 216.266 79.9663C216.265 79.501 216.641 79.1222 217.106 79.1206L217.936 79.1167ZM213.771 79.1089C214.236 79.1139 214.609 79.495 214.604 79.9604C214.6 80.4258 214.218 80.799 213.753 80.7944C213.474 80.7915 213.195 80.7875 212.918 80.7837C212.453 80.7769 212.08 80.3953 212.086 79.9302C212.092 79.465 212.475 79.0923 212.94 79.0981L213.771 79.1089ZM222.101 79.0601C222.566 79.0501 222.951 79.4184 222.962 79.8833C222.972 80.3489 222.602 80.7356 222.137 80.7456C221.858 80.7516 221.581 80.7571 221.304 80.7622C220.839 80.7706 220.453 80.4003 220.444 79.9351C220.436 79.4697 220.807 79.0854 221.272 79.0767L222.101 79.0601ZM209.607 79.0288C210.072 79.0422 210.439 79.4299 210.426 79.895C210.413 80.3604 210.025 80.7273 209.56 80.7144L208.727 80.6899C208.261 80.675 207.895 80.285 207.91 79.8198C207.925 79.3546 208.315 78.9897 208.78 79.0044L209.607 79.0288ZM226.271 78.939C226.737 78.9222 227.127 79.2854 227.144 79.7505C227.16 80.2156 226.796 80.6073 226.331 80.6245L225.491 80.6538C225.026 80.6692 224.636 80.3045 224.62 79.8394C224.605 79.3743 224.97 78.9841 225.435 78.9683C225.573 78.9636 225.713 78.9585 225.853 78.9536L225.883 79.7964L225.854 78.9546C225.994 78.9497 226.133 78.944 226.271 78.939ZM205.066 77.7847C205.501 77.7502 205.885 78.0532 205.962 78.4731L205.974 78.5581C205.989 78.7521 206.007 78.9465 206.024 79.1401C206.173 79.3004 206.261 79.5175 206.25 79.7534C206.228 80.2185 205.832 80.5775 205.367 80.5552C205.088 80.5417 204.81 80.5277 204.534 80.5132C204.069 80.4886 203.712 80.0922 203.736 79.6274C203.755 79.2726 203.991 78.9802 204.309 78.8726C204.304 78.8128 204.298 78.7527 204.293 78.6929C204.256 78.229 204.602 77.8216 205.066 77.7847ZM230.433 78.7563C230.897 78.7328 231.294 79.0905 231.317 79.5552C231.341 80.0199 230.982 80.4166 230.518 80.4409C230.241 80.4551 229.963 80.4695 229.685 80.4829C229.22 80.5054 228.824 80.1461 228.802 79.6812C228.78 79.2163 229.139 78.8213 229.604 78.7983L230.433 78.7563ZM200.468 78.563L201.3 78.6245C201.764 78.6577 202.115 79.0616 202.082 79.5259C202.048 79.9899 201.644 80.3393 201.18 80.3062C200.897 80.2859 200.617 80.265 200.339 80.2437C199.875 80.2078 199.528 79.8024 199.563 79.3384C199.597 78.9035 199.955 78.5707 200.382 78.5601L200.468 78.563ZM234.592 78.5103C235.056 78.4792 235.458 78.831 235.488 79.2954C235.517 79.731 235.21 80.1117 234.788 80.1831L234.703 80.1938L233.87 80.2476C233.406 80.277 233.005 79.9249 232.976 79.4604C232.946 78.9957 233.301 78.5946 233.766 78.5649L234.592 78.5103ZM196.335 78.1841L197.157 78.27C197.62 78.3169 197.959 78.7307 197.912 79.1938C197.865 79.6567 197.451 79.9942 196.988 79.9478C196.708 79.9195 196.43 79.8904 196.155 79.8608C195.692 79.8109 195.356 79.3941 195.406 78.9312C195.457 78.4688 195.873 78.1345 196.335 78.1841ZM238.746 78.1978C239.21 78.159 239.618 78.5042 239.656 78.9683C239.694 79.4322 239.349 79.8395 238.885 79.8784C238.609 79.9015 238.332 79.9244 238.054 79.9468C237.59 79.984 237.183 79.6382 237.146 79.1743C237.11 78.7103 237.456 78.3026 237.92 78.2651L238.746 78.1978ZM242.892 77.814C243.355 77.7668 243.769 78.1038 243.815 78.5669C243.862 79.03 243.525 79.4442 243.062 79.4917L242.232 79.5747C241.769 79.6202 241.357 79.2812 241.312 78.8179C241.269 78.3835 241.564 77.9932 241.983 77.9087L242.069 77.896L242.892 77.814ZM192.223 77.6587L193.048 77.7798C193.509 77.8448 193.83 78.2709 193.766 78.7319C193.705 79.164 193.326 79.4729 192.899 79.4565L192.813 79.4497L191.972 79.3267C191.511 79.2573 191.194 78.828 191.263 78.3677C191.328 77.9362 191.709 77.6296 192.136 77.6499L192.223 77.6587ZM247.028 77.3501C247.49 77.2936 247.912 77.6224 247.968 78.0845C248.02 78.5177 247.733 78.9147 247.316 79.0093L247.231 79.0239L246.403 79.1235C245.941 79.178 245.522 78.8475 245.468 78.3853C245.417 77.952 245.705 77.5563 246.122 77.4634L246.208 77.4487L247.028 77.3501ZM187.167 77.561C187.268 77.1066 187.718 76.8187 188.173 76.9194L188.976 77.0913C189.432 77.1844 189.727 77.6293 189.634 78.0854C189.547 78.5132 189.149 78.7989 188.724 78.7563L188.64 78.7437L187.807 78.5659C187.353 78.4647 187.066 78.0152 187.167 77.561ZM251.155 76.7944C251.616 76.7266 252.044 77.045 252.111 77.5054C252.178 77.9657 251.86 78.3942 251.399 78.4624C251.124 78.5031 250.845 78.5437 250.564 78.5835C250.104 78.6487 249.678 78.3283 249.612 77.8677C249.547 77.4066 249.869 76.9801 250.33 76.9146C250.607 76.8751 250.883 76.8347 251.155 76.7944ZM255.253 76.1284C255.711 76.0466 256.149 76.3519 256.23 76.8101C256.312 77.2683 256.006 77.7065 255.548 77.7886C255.276 77.8372 255 77.8863 254.722 77.9341C254.263 78.0124 253.829 77.704 253.75 77.2456C253.672 76.7867 253.98 76.3508 254.439 76.272C254.714 76.2249 254.985 76.1763 255.253 76.1284ZM184.218 75.7632L184.3 75.7915C184.415 75.8375 184.535 75.8826 184.658 75.9282L185.041 76.0659C185.481 76.2171 185.716 76.6968 185.565 77.1372C185.414 77.5773 184.934 77.8115 184.494 77.6606C184.207 77.562 183.932 77.4598 183.673 77.356C183.241 77.1829 183.03 76.6924 183.203 76.2603C183.365 75.8554 183.807 75.6455 184.218 75.7632ZM259.321 75.3188C259.776 75.2177 260.225 75.5032 260.326 75.9575C260.427 76.4118 260.141 76.8628 259.687 76.9644C259.414 77.0252 259.135 77.0852 258.854 77.145C258.398 77.2414 257.951 76.9509 257.854 76.4956C257.758 76.0403 258.05 75.5926 258.505 75.4956L259.321 75.3188ZM263.312 74.2993C263.758 74.1674 264.227 74.4223 264.358 74.8687C264.49 75.3149 264.234 75.7843 263.788 75.9165C263.523 75.9951 263.25 76.0725 262.971 76.1499C262.522 76.2741 262.058 76.0113 261.934 75.563C261.81 75.1145 262.073 74.6495 262.521 74.5249C262.792 74.45 263.056 74.3751 263.312 74.2993ZM205.075 73.4839C205.5 73.5309 205.828 73.8933 205.824 74.3296L205.822 74.7534C205.822 74.8946 205.823 75.0364 205.824 75.1772C205.828 75.6137 205.5 75.9759 205.075 76.0229L204.989 76.0278C204.524 76.0319 204.143 75.6583 204.139 75.1929L204.137 74.7534C204.137 74.6071 204.137 74.46 204.139 74.314C204.143 73.8487 204.524 73.4749 204.989 73.479L205.075 73.4839ZM182.106 74.2739L182.128 74.3433C182.298 74.7763 182.084 75.2646 181.651 75.4351C181.245 75.5947 180.791 75.418 180.595 75.0386L180.558 74.9595C180.472 74.7422 180.422 74.5123 180.414 74.2739L182.1 74.2173C182.1 74.2347 182.102 74.2536 182.106 74.2739ZM267.099 72.9028C267.518 72.7003 268.021 72.8756 268.224 73.2944C268.426 73.7135 268.25 74.2177 267.831 74.4204C267.705 74.4812 267.575 74.542 267.442 74.6021L267.032 74.7808C266.603 74.9622 266.109 74.7613 265.928 74.3325C265.758 73.9305 265.924 73.4705 266.299 73.2651L266.377 73.228C266.505 73.1737 266.63 73.1192 266.75 73.0649L267.099 72.9028ZM270.872 71.1196C270.88 71.3581 270.846 71.5913 270.775 71.814C270.635 72.2576 270.16 72.5036 269.717 72.3638C269.301 72.2323 269.058 71.8076 269.146 71.3892L269.167 71.3062C269.183 71.2554 269.189 71.2137 269.188 71.1782L270.872 71.1196ZM205.291 69.188C205.754 69.2334 206.093 69.6458 206.048 70.1089C206.021 70.3877 205.996 70.6684 205.974 70.9487L205.962 71.0337C205.885 71.4539 205.501 71.7566 205.066 71.7222C204.602 71.6852 204.256 71.2781 204.293 70.814C204.316 70.524 204.341 70.2342 204.369 69.9458L204.382 69.8599C204.466 69.4411 204.857 69.1456 205.291 69.188ZM205.01 65.5278C205.131 65.1183 205.546 64.8589 205.975 64.9399C206.432 65.0266 206.733 65.4679 206.646 65.9253L206.497 66.7544L206.479 66.8384C206.365 67.2502 205.955 67.5171 205.524 67.4438C205.065 67.3655 204.757 66.9291 204.835 66.4702C204.884 66.1833 204.935 65.8968 204.989 65.6118L205.01 65.5278ZM205.999 61.3501C206.127 60.9028 206.594 60.6433 207.041 60.771C207.489 60.8988 207.748 61.3655 207.62 61.813C207.543 62.0826 207.469 62.3547 207.396 62.6265L207.37 62.7085C207.219 63.1081 206.786 63.3363 206.364 63.2241C205.915 63.1043 205.647 62.6426 205.767 62.1929L205.999 61.3501ZM208.668 58.5981C208.507 59.0349 208.023 59.2591 207.586 59.0991C207.149 58.9388 206.924 58.4541 207.084 58.0171L208.668 58.5981ZM207.429 57.1196C207.623 56.7394 208.078 56.5596 208.484 56.7173C208.918 56.8857 209.133 57.3751 208.965 57.8091L208.668 58.5981L207.876 58.3071L207.084 58.0171C207.184 57.7433 207.288 57.47 207.394 57.1987L207.429 57.1196ZM210.304 54.7036C210.104 55.1238 209.601 55.3029 209.181 55.103C208.76 54.9029 208.581 54.3994 208.781 53.979L210.304 54.7036ZM209.919 53.5698L210.674 53.9458C210.549 54.1968 210.425 54.4497 210.304 54.7036L209.543 54.3413L208.781 53.979C208.907 53.7156 209.035 53.4533 209.165 53.1929L209.919 53.5698ZM209.165 53.1929C209.373 52.7766 209.879 52.6072 210.296 52.8149C210.712 53.0229 210.881 53.5293 210.674 53.9458L209.165 53.1929ZM211.302 49.3687C211.548 48.9738 212.068 48.8527 212.463 49.0981C212.858 49.3441 212.979 49.865 212.733 50.2603L212.295 50.98C212.056 51.3797 211.539 51.5104 211.139 51.272C210.739 51.0334 210.608 50.5155 210.847 50.1157C210.996 49.8652 211.148 49.6158 211.302 49.3687ZM214.626 47.4604C214.351 47.8355 213.824 47.9169 213.448 47.6421C213.073 47.3668 212.991 46.8389 213.267 46.4634L214.626 47.4604ZM213.79 45.7622C214.072 45.3923 214.602 45.3212 214.972 45.603C215.342 45.8854 215.413 46.4145 215.131 46.7847C214.961 47.0078 214.792 47.2337 214.626 47.4604L213.946 46.9614L213.267 46.4634C213.439 46.2281 213.613 45.9938 213.79 45.7622ZM217.281 44.1792C216.971 44.5265 216.438 44.5575 216.091 44.2476C215.744 43.9376 215.714 43.4045 216.023 43.0571L217.281 44.1792ZM216.612 42.4097C216.929 42.0685 217.463 42.0482 217.805 42.3647C218.146 42.6815 218.165 43.2149 217.849 43.5562C217.658 43.7618 217.468 43.9696 217.281 44.1792L216.652 43.6177L216.023 43.0571C216.218 42.8395 216.414 42.6232 216.612 42.4097ZM219.815 39.2915C220.162 39.0418 220.649 39.0907 220.938 39.4175C221.247 39.7661 221.215 40.2993 220.866 40.6079L220.241 41.1724C219.899 41.4876 219.365 41.4656 219.05 41.1235C218.734 40.7811 218.756 40.2476 219.099 39.9321C219.313 39.7344 219.53 39.5385 219.748 39.3452L219.815 39.2915ZM223.666 37.2896L224.159 37.9731C223.932 38.1372 223.705 38.3035 223.48 38.4722C223.108 38.7517 222.581 38.677 222.301 38.3052C222.021 37.933 222.096 37.4043 222.468 37.1245C222.701 36.9491 222.937 36.7756 223.174 36.605L223.666 37.2896ZM223.174 36.605C223.552 36.3333 224.078 36.4189 224.351 36.7964C224.622 37.1741 224.537 37.701 224.159 37.9731L223.174 36.605ZM226.937 34.186C227.327 34.0115 227.793 34.1574 228.011 34.5356C228.243 34.9391 228.103 35.4539 227.7 35.686C227.457 35.826 227.215 35.9689 226.975 36.1138C226.576 36.354 226.058 36.226 225.817 35.8276C225.577 35.429 225.705 34.9099 226.104 34.6694C226.354 34.5186 226.606 34.3708 226.859 34.2251L226.937 34.186ZM230.773 32.2368C231.199 32.0484 231.697 32.2412 231.886 32.6665C232.074 33.092 231.882 33.59 231.457 33.7788L230.691 34.1284C230.27 34.326 229.767 34.1445 229.569 33.7231C229.372 33.3017 229.553 32.7988 229.975 32.6011C230.239 32.477 230.506 32.3554 230.773 32.2368ZM234.876 30.6724C235.319 30.5301 235.794 30.7743 235.937 31.2173C236.079 31.6605 235.835 32.1353 235.392 32.2778C235.125 32.3637 234.859 32.453 234.594 32.5444L234.511 32.5679C234.095 32.6659 233.664 32.4345 233.521 32.022C233.37 31.582 233.603 31.1017 234.043 30.9497C234.319 30.8543 234.597 30.762 234.876 30.6724ZM239.123 29.5542C239.579 29.4604 240.025 29.7539 240.119 30.2095C240.213 30.6653 239.92 31.1112 239.464 31.2056L238.642 31.3853L238.557 31.3999C238.133 31.4527 237.729 31.1768 237.632 30.7515C237.528 30.2977 237.812 29.8456 238.266 29.7417L239.123 29.5542ZM243.465 28.8989C243.928 28.8543 244.34 29.1944 244.385 29.6577C244.429 30.121 244.09 30.5329 243.627 30.5776L242.79 30.6675L242.704 30.6733C242.277 30.6802 241.906 30.3624 241.854 29.9292C241.8 29.4669 242.13 29.0473 242.593 28.9927L243.465 28.8989ZM247.415 30.396C247.274 30.396 247.134 30.3974 246.993 30.3989C246.528 30.4039 246.146 30.0303 246.141 29.5649C246.136 29.0995 246.509 28.7175 246.975 28.7124L247.415 28.7104V30.396Z" fill="white"/>
</g>
</g>
<path d="M266 37.145C266 44.9571 259.777 51.29 252.102 51.29C244.426 51.29 238.203 44.9571 238.203 37.145C238.203 29.333 244.426 23.0001 252.102 23.0001C259.777 23.0001 266 29.333 266 37.145Z" fill="#898886"/>
<path d="M256.88 81.6333L196.379 46.3655C196.513 46.1114 196.651 45.8582 196.793 45.6064C205.917 29.3953 226.861 24.1511 243.573 33.8929C260.285 43.6348 266.437 64.674 257.313 80.8854C257.172 81.1372 257.028 81.3868 256.88 81.6333Z" fill="#898886"/>
<path d="M220.466 50.1401L186.72 59.3428C186.678 59.1977 186.637 59.0515 186.598 58.9044C184.104 49.4289 189.638 39.6864 198.96 37.1444C208.282 34.6025 217.86 40.2235 220.355 49.6989C220.394 49.8459 220.431 49.9929 220.466 50.1401Z" fill="#898886"/>
<path d="M247.782 67.6934V91.1191C247.88 91.1216 247.978 91.123 248.076 91.123C254.426 91.123 259.574 85.8769 259.574 79.4062C259.574 72.9358 254.426 67.6905 248.076 67.6904C247.978 67.6904 247.88 67.6909 247.782 67.6934Z" fill="#51514F"/>
<path d="M204.161 73.6914L211.08 89.0971H197.242L204.161 73.6914Z" fill="#898886"/>
<ellipse cx="215.769" cy="76.259" rx="2.52287" ry="2.56762" fill="#B6B6B6"/>
<ellipse cx="195.554" cy="76.259" rx="2.52287" ry="2.56762" fill="#B6B6B6"/>
<path d="M185 131C185 125.477 189.477 121 195 121H257C262.523 121 267 125.477 267 131C267 136.523 262.523 141 257 141H195C189.477 141 185 136.523 185 131Z" fill="#E1E2E4"/>
<path d="M212.707 125.906V129.398H205.652V125.906H212.707ZM206.555 126.645V128.648H211.793V126.645H206.555ZM213.914 130.359V131.121H209.613V132.469H212.801V135.949H211.887V133.23H209.355V132.469H208.828V135.949H207.914V133.23H205.289V132.469H208.711V131.121H204.422V130.359H213.914ZM223.985 131.027V131.777H214.493V131.027H223.985ZM222.93 134.953V135.727H215.723V132.691H216.649V134.953H222.93ZM219.239 125.906C221.477 125.895 222.919 126.668 222.919 127.969C222.919 129.27 221.477 130.043 219.239 130.043C216.977 130.043 215.548 129.27 215.548 127.969C215.548 126.668 216.977 125.895 219.239 125.906ZM219.239 126.645C217.563 126.645 216.485 127.148 216.497 127.969C216.485 128.789 217.563 129.293 219.239 129.293C220.903 129.293 221.981 128.789 221.981 127.969C221.981 127.148 220.903 126.645 219.239 126.645ZM235.913 125.531V131.742H234.987V129.012H232.889V128.25H234.987V125.531H235.913ZM232.455 132.07C234.623 132.07 235.948 132.773 235.948 134.004C235.948 135.234 234.623 135.938 232.455 135.949C230.288 135.938 228.963 135.234 228.963 134.004C228.963 132.773 230.288 132.07 232.455 132.07ZM232.455 132.785C230.862 132.785 229.866 133.242 229.877 134.004C229.866 134.754 230.862 135.211 232.455 135.211C234.049 135.211 235.034 134.754 235.034 134.004C235.034 133.242 234.049 132.785 232.455 132.785ZM230.897 127.441C230.897 128.801 231.94 130.09 233.463 130.617L232.983 131.355C231.811 130.934 230.903 130.061 230.463 128.977C230.006 130.201 229.039 131.18 227.803 131.648L227.323 130.91C228.87 130.348 229.971 128.941 229.971 127.453V127.066H227.616V126.293H233.229V127.066H230.897V127.441ZM242.62 126.445V127.371H245.058V125.543H245.984V133.148H245.058V130.371H242.62V131.309H237.839V126.445H242.62ZM238.753 127.207V130.57H241.718V127.207H238.753ZM246.218 134.953V135.727H239.245V132.469H240.171V134.953H246.218ZM242.62 129.609H245.058V128.145H242.62V129.609Z" fill="#262524"/>
<path d="M70.6094 59.9653H138.237V113H70.6094V59.9653Z" fill="#898886"/>
<path d="M133.165 63.3896V86.7637C133.263 86.7662 133.362 86.7676 133.461 86.7676C139.834 86.7676 145 81.5337 145 75.0771C145 68.6207 139.834 63.3867 133.461 63.3867C133.362 63.3867 133.263 63.3871 133.165 63.3896Z" fill="#51514F"/>
<path d="M74.835 63.3896V86.7637C74.7366 86.7662 74.638 86.7676 74.5391 86.7676C68.1662 86.7675 63 81.5337 63 75.0771C63.0001 68.6207 68.1663 63.3868 74.5391 63.3867C74.638 63.3867 74.7366 63.3871 74.835 63.3896Z" fill="#51514F"/>
<ellipse cx="104.368" cy="69.5884" rx="33.7588" ry="38.4302" fill="#51514F"/>
<g style="mix-blend-mode:soft-light" opacity="0.3">
<path d="M104.422 106.601C104.888 106.601 105.265 106.979 105.265 107.445V107.868H103.579V107.445C103.579 106.979 103.956 106.601 104.422 106.601ZM104.422 102.372C104.888 102.372 105.265 102.75 105.265 103.215V104.061C105.265 104.527 104.888 104.904 104.422 104.904C103.956 104.904 103.579 104.527 103.579 104.061V103.215C103.579 102.75 103.956 102.372 104.422 102.372ZM104.422 98.1421C104.888 98.1421 105.265 98.5202 105.265 98.9858V99.8315C105.265 100.297 104.888 100.674 104.422 100.674C103.956 100.674 103.579 100.297 103.579 99.8315V98.9858C103.579 98.5202 103.956 98.1421 104.422 98.1421ZM104.422 93.9126C104.888 93.9126 105.265 94.2907 105.265 94.7563V95.6021C105.265 96.0677 104.888 96.4448 104.422 96.4448C103.956 96.4448 103.579 96.0677 103.579 95.6021V94.7563C103.579 94.2907 103.956 93.9126 104.422 93.9126ZM104.422 89.6831C104.888 89.6831 105.265 90.0612 105.265 90.5269V91.3726C105.265 91.8382 104.888 92.2153 104.422 92.2153C103.956 92.2153 103.579 91.8382 103.579 91.3726V90.5269C103.579 90.0612 103.956 89.6831 104.422 89.6831ZM104.422 85.4536C104.888 85.4536 105.265 85.8317 105.265 86.2974V87.1431C105.265 87.6087 104.888 87.9858 104.422 87.9858C103.956 87.9858 103.579 87.6087 103.579 87.1431V86.2974C103.579 85.8317 103.956 85.4536 104.422 85.4536ZM104.422 81.2241C104.888 81.2241 105.265 81.6022 105.265 82.0679V82.9136C105.265 83.3792 104.888 83.7563 104.422 83.7563C103.956 83.7563 103.579 83.3792 103.579 82.9136V82.0679C103.579 81.6022 103.956 81.2241 104.422 81.2241ZM104.422 76.9946C104.888 76.9946 105.265 77.3727 105.265 77.8384V78.6841C105.265 79.1497 104.888 79.5269 104.422 79.5269C103.956 79.5268 103.579 79.1497 103.579 78.6841V77.8384C103.579 77.3727 103.956 76.9946 104.422 76.9946ZM104.422 72.7651C104.515 72.7651 104.605 72.7811 104.688 72.8091H104.844C105.309 72.8091 105.688 73.1862 105.688 73.6519C105.687 73.964 105.517 74.2358 105.265 74.3813V74.4546C105.265 74.9202 104.888 75.2974 104.422 75.2974C103.956 75.2973 103.579 74.9202 103.579 74.4546V74.3813C103.326 74.2359 103.155 73.9643 103.155 73.6519C103.155 73.1862 103.533 72.8091 103.999 72.8091H104.155C104.239 72.7811 104.329 72.7651 104.422 72.7651ZM71.0303 72.8091C71.4958 72.8092 71.873 73.1863 71.873 73.6519C71.8729 74.1173 71.4958 74.4945 71.0303 74.4946H70.6074V72.8091H71.0303ZM75.2568 72.8091C75.7225 72.8091 76.0996 73.1862 76.0996 73.6519C76.0995 74.1174 75.7224 74.4946 75.2568 74.4946H74.4111C73.9457 74.4944 73.5685 74.1173 73.5684 73.6519C73.5684 73.1863 73.9456 72.8093 74.4111 72.8091H75.2568ZM79.4834 72.8091C79.9491 72.8091 80.3271 73.1862 80.3271 73.6519C80.327 74.1174 79.949 74.4946 79.4834 74.4946H78.6387C78.1731 74.4946 77.795 74.1174 77.7949 73.6519C77.7949 73.1862 78.173 72.8091 78.6387 72.8091H79.4834ZM83.71 72.8091C84.1756 72.8091 84.5537 73.1862 84.5537 73.6519C84.5536 74.1174 84.1755 74.4946 83.71 74.4946H82.8652C82.3997 74.4946 82.0216 74.1174 82.0215 73.6519C82.0215 73.1862 82.3996 72.8091 82.8652 72.8091H83.71ZM87.9375 72.8091C88.4029 72.8093 88.7803 73.1864 88.7803 73.6519C88.7801 74.1173 88.4029 74.4944 87.9375 74.4946H87.0918C86.6262 74.4946 86.2491 74.1174 86.249 73.6519C86.249 73.1862 86.6261 72.8091 87.0918 72.8091H87.9375ZM92.1641 72.8091C92.6296 72.8092 93.0068 73.1863 93.0068 73.6519C93.0067 74.1173 92.6295 74.4945 92.1641 74.4946H91.3184C90.8528 74.4946 90.4757 74.1174 90.4756 73.6519C90.4756 73.1862 90.8527 72.8091 91.3184 72.8091H92.1641ZM96.3906 72.8091C96.8562 72.8091 97.2334 73.1862 97.2334 73.6519C97.2333 74.1174 96.8562 74.4946 96.3906 74.4946H95.5449C95.0795 74.4945 94.7023 74.1173 94.7021 73.6519C94.7021 73.1863 95.0794 72.8092 95.5449 72.8091H96.3906ZM100.617 72.8091C101.083 72.8091 101.46 73.1862 101.46 73.6519C101.46 74.1174 101.083 74.4946 100.617 74.4946H99.7715C99.3061 74.4944 98.9288 74.1172 98.9287 73.6519C98.9287 73.1864 99.306 72.8093 99.7715 72.8091H100.617ZM109.07 72.8091C109.536 72.8091 109.914 73.1862 109.914 73.6519C109.914 74.1174 109.536 74.4946 109.07 74.4946H108.226C107.76 74.4946 107.382 74.1174 107.382 73.6519C107.382 73.1862 107.76 72.8091 108.226 72.8091H109.07ZM113.298 72.8091C113.763 72.8093 114.141 73.1863 114.141 73.6519C114.141 74.1173 113.763 74.4945 113.298 74.4946H112.452C111.987 74.4946 111.609 74.1174 111.609 73.6519C111.609 73.1862 111.987 72.8091 112.452 72.8091H113.298ZM117.524 72.8091C117.99 72.8092 118.367 73.1862 118.367 73.6519C118.367 74.1174 117.99 74.4946 117.524 74.4946H116.679C116.213 74.4945 115.836 74.1173 115.836 73.6519C115.836 73.1863 116.213 72.8092 116.679 72.8091H117.524ZM121.751 72.8091C122.217 72.8091 122.594 73.1862 122.594 73.6519C122.594 74.1174 122.217 74.4946 121.751 74.4946H120.905C120.44 74.4944 120.063 74.1173 120.062 73.6519C120.062 73.1863 120.44 72.8093 120.905 72.8091H121.751ZM125.978 72.8091C126.443 72.8091 126.821 73.1862 126.821 73.6519C126.821 74.1174 126.443 74.4946 125.978 74.4946H125.133C124.667 74.4946 124.289 74.1174 124.289 73.6519C124.289 73.1862 124.667 72.8091 125.133 72.8091H125.978ZM130.204 72.8091C130.67 72.8091 131.048 73.1862 131.048 73.6519C131.048 74.1174 130.67 74.4946 130.204 74.4946H129.359C128.894 74.4946 128.516 74.1174 128.516 73.6519C128.516 73.1862 128.894 72.8091 129.359 72.8091H130.204ZM134.432 72.8091C134.897 72.8093 135.274 73.1863 135.274 73.6519C135.274 74.1173 134.897 74.4944 134.432 74.4946H133.586C133.12 74.4946 132.743 74.1174 132.743 73.6519C132.743 73.1862 133.12 72.8091 133.586 72.8091H134.432ZM138.235 74.4946H137.812C137.347 74.4945 136.97 74.1173 136.97 73.6519C136.97 73.1863 137.347 72.8092 137.812 72.8091H138.235V74.4946ZM104.422 68.5356C104.888 68.5356 105.265 68.9137 105.265 69.3794V70.2251C105.265 70.6908 104.888 71.0679 104.422 71.0679C103.956 71.0679 103.579 70.6907 103.579 70.2251V69.3794C103.579 68.9138 103.956 68.5357 104.422 68.5356ZM104.422 64.3062C104.888 64.3062 105.265 64.6842 105.265 65.1499V65.9956C105.265 66.4613 104.888 66.8384 104.422 66.8384C103.956 66.8384 103.579 66.4612 103.579 65.9956V65.1499C103.579 64.6843 103.956 64.3062 104.422 64.3062ZM104.422 60.0767C104.888 60.0767 105.265 60.4548 105.265 60.9204V61.7661C105.265 62.2318 104.888 62.6089 104.422 62.6089C103.956 62.6089 103.579 62.2318 103.579 61.7661V60.9204C103.579 60.4548 103.956 60.0767 104.422 60.0767ZM104.422 55.8472C104.888 55.8472 105.265 56.2253 105.265 56.6909V57.5366C105.265 58.0023 104.888 58.3794 104.422 58.3794C103.956 58.3794 103.579 58.0023 103.579 57.5366V56.6909C103.579 56.2253 103.956 55.8472 104.422 55.8472ZM104.422 51.6177C104.888 51.6177 105.265 51.9958 105.265 52.4614V53.3071C105.265 53.7728 104.888 54.1499 104.422 54.1499C103.956 54.1499 103.579 53.7728 103.579 53.3071V52.4614C103.579 51.9958 103.956 51.6177 104.422 51.6177ZM104.422 47.3882C104.888 47.3882 105.265 47.7663 105.265 48.2319V49.0776C105.265 49.5433 104.888 49.9204 104.422 49.9204C103.956 49.9204 103.579 49.5433 103.579 49.0776V48.2319C103.579 47.7663 103.956 47.3882 104.422 47.3882ZM104.422 43.1597C104.888 43.1597 105.265 43.5368 105.265 44.0024V44.8481C105.265 45.3138 104.888 45.6909 104.422 45.6909C103.956 45.6909 103.579 45.3138 103.579 44.8481V44.0024C103.579 43.5368 103.956 43.1597 104.422 43.1597ZM104.422 38.9302C104.888 38.9302 105.265 39.3073 105.265 39.7729V40.6187C105.265 41.0843 104.888 41.4614 104.422 41.4614C103.956 41.4614 103.579 41.0843 103.579 40.6187V39.7729C103.579 39.3073 103.956 38.9302 104.422 38.9302ZM104.422 34.7007C104.888 34.7007 105.265 35.0778 105.265 35.5435V36.3892C105.265 36.8548 104.888 37.2319 104.422 37.2319C103.956 37.2319 103.579 36.8548 103.579 36.3892V35.5435C103.579 35.0778 103.956 34.7007 104.422 34.7007ZM105.265 32.1597C105.265 32.6253 104.888 33.0024 104.422 33.0024C103.956 33.0024 103.579 32.6253 103.579 32.1597V31.7368H105.265V32.1597Z" fill="white"/>
</g>
<ellipse cx="116.286" cy="71.936" rx="2.53191" ry="2.56202" fill="#B6B6B6"/>
<ellipse cx="91.7389" cy="71.936" rx="2.53191" ry="2.56202" fill="#B6B6B6"/>
<path d="M104.604 69.374L111.547 84.7461H97.6602L104.604 69.374Z" fill="#898886"/>
<path d="M124.84 37.5081L70.4317 71.1433C70.2939 70.9283 70.1581 70.7109 70.0253 70.491C61.4768 56.3314 66.7302 37.3206 81.7591 28.0296C96.7882 18.7389 115.902 22.6862 124.451 36.8454C124.583 37.0653 124.714 37.2859 124.84 37.5081Z" fill="#898886"/>
<path d="M109.493 34.1992C117.731 26.7154 130.851 27.8845 138.821 36.8223C146.79 45.7601 146.596 59.0863 138.395 66.6117L109.493 34.1992Z" fill="#898886"/>
<path d="M71.75 82.0647L71.5661 67.9583L69.7495 70.1612L71.75 82.0647Z" fill="#898886"/>
<path d="M137.117 82.065L137.301 59.4046L139.118 61.6074L137.117 82.065Z" fill="#898886"/>
<path d="M63 131C63 125.477 67.4772 121 73 121H135C140.523 121 145 125.477 145 131C145 136.523 140.523 141 135 141H73C67.4772 141 63 136.523 63 131Z" fill="#E1E2E4"/>
<path d="M102.559 125.531V131.742H101.633V129.012H99.5352V128.25H101.633V125.531H102.559ZM99.1016 132.07C101.27 132.07 102.594 132.773 102.594 134.004C102.594 135.234 101.27 135.938 99.1016 135.949C96.9336 135.938 95.6094 135.234 95.6094 134.004C95.6094 132.773 96.9336 132.07 99.1016 132.07ZM99.1016 132.785C97.5078 132.785 96.5117 133.242 96.5234 134.004C96.5117 134.754 97.5078 135.211 99.1016 135.211C100.695 135.211 101.68 134.754 101.68 134.004C101.68 133.242 100.695 132.785 99.1016 132.785ZM97.543 127.441C97.543 128.801 98.5859 130.09 100.109 130.617L99.6289 131.355C98.457 130.934 97.5488 130.061 97.1094 128.977C96.6523 130.201 95.6855 131.18 94.4492 131.648L93.9688 130.91C95.5156 130.348 96.6172 128.941 96.6172 127.453V127.066H94.2617V126.293H99.875V127.066H97.543V127.441ZM109.266 126.445V127.371H111.704V125.543H112.63V133.148H111.704V130.371H109.266V131.309H104.485V126.445H109.266ZM105.399 127.207V130.57H108.364V127.207H105.399ZM112.864 134.953V135.727H105.891V132.469H106.817V134.953H112.864ZM109.266 129.609H111.704V128.145H109.266V129.609Z" fill="#262524"/>
<path d="M111.949 214.999V237.739C112.045 237.742 112.141 237.747 112.237 237.747C118.491 237.747 123.562 232.654 123.562 226.37C123.562 220.087 118.491 214.992 112.237 214.992C112.141 214.992 112.045 214.997 111.949 214.999Z" fill="#51514F"/>
<ellipse cx="100.17" cy="220.788" rx="33.1313" ry="37.4231" fill="#51514F"/>
<mask id="mask1_2648_22732" style="mask-type:alpha" maskUnits="userSpaceOnUse" x="67" y="183" width="67" height="76">
<ellipse cx="100.17" cy="220.788" rx="33.1313" ry="37.4231" fill="#7BDAA9"/>
</mask>
<g mask="url(#mask1_2648_22732)">
<g style="mix-blend-mode:soft-light" opacity="0.3">
<path d="M113.939 264.125V265.811C113.796 265.811 113.651 265.81 113.508 265.809C113.043 265.804 112.669 265.422 112.674 264.957C112.679 264.492 113.06 264.117 113.525 264.122C113.663 264.124 113.801 264.125 113.939 264.125ZM109.416 263.865C109.688 263.897 109.96 263.925 110.233 263.951C110.697 263.995 111.037 264.406 110.994 264.869C110.95 265.332 110.539 265.674 110.075 265.63C109.79 265.603 109.505 265.573 109.222 265.54C108.759 265.486 108.428 265.068 108.481 264.605C108.532 264.172 108.902 263.854 109.329 263.859L109.416 263.865ZM105.271 263.162L105.355 263.177L106.16 263.349C106.616 263.441 106.911 263.886 106.819 264.342C106.727 264.798 106.282 265.094 105.826 265.002C105.546 264.945 105.265 264.885 104.986 264.822C104.532 264.72 104.247 264.269 104.349 263.815C104.444 263.39 104.846 263.111 105.271 263.162ZM102.173 262.32C102.617 262.46 102.864 262.934 102.725 263.378C102.593 263.794 102.168 264.037 101.75 263.95L101.667 263.929C101.394 263.843 101.121 263.754 100.851 263.662L101.121 262.864L101.391 262.065L102.173 262.32ZM100.322 262.594C100.472 262.153 100.95 261.917 101.391 262.065L100.851 263.662C100.41 263.513 100.173 263.035 100.322 262.594ZM96.4463 260.957C96.6287 260.561 97.0795 260.373 97.4834 260.511L97.5645 260.543C97.8134 260.657 98.0639 260.77 98.3154 260.879C98.7423 261.064 98.9381 261.561 98.7529 261.988C98.5673 262.415 98.0705 262.611 97.6436 262.426L96.8604 262.075C96.4374 261.881 96.2522 261.38 96.4463 260.957ZM92.7588 258.93C92.9957 258.529 93.5133 258.396 93.9141 258.633C94.1501 258.772 94.3881 258.909 94.627 259.044C95.0324 259.273 95.1756 259.787 94.9473 260.192C94.7186 260.598 94.2043 260.741 93.7988 260.513C93.55 260.372 93.3025 260.229 93.0566 260.084C92.6561 259.847 92.5225 259.33 92.7588 258.93ZM89.2979 256.537C89.5568 256.186 90.0366 256.094 90.4043 256.312L90.4766 256.358C90.6975 256.521 90.9204 256.683 91.1445 256.841C91.5244 257.109 91.6149 257.635 91.3467 258.016C91.078 258.396 90.5521 258.486 90.1719 258.218L89.4766 257.717C89.1019 257.441 89.022 256.912 89.2979 256.537ZM86.0918 253.812C86.3843 253.488 86.8715 253.444 87.2158 253.696L87.2832 253.751L87.8994 254.297C88.2508 254.602 88.289 255.135 87.9844 255.486C87.6793 255.838 87.1466 255.875 86.7949 255.57L86.1533 255.003C85.8079 254.691 85.7801 254.157 86.0918 253.812ZM83.1689 250.785C83.4917 250.491 83.9807 250.495 84.2988 250.78L84.3604 250.841L84.9209 251.444C85.2407 251.782 85.2265 252.317 84.8887 252.637C84.5717 252.937 84.0824 252.942 83.7588 252.663L83.6963 252.604C83.5003 252.396 83.3054 252.187 83.1133 251.976C82.8005 251.631 82.8253 251.099 83.1689 250.785ZM82.2334 248.314C82.519 248.682 82.4522 249.212 82.085 249.498C81.7177 249.783 81.1883 249.717 80.9023 249.351L82.2334 248.314ZM80.5527 247.489C80.9021 247.228 81.3885 247.279 81.6777 247.593L81.7334 247.659C81.8979 247.879 82.065 248.098 82.2334 248.314L81.5674 248.832L80.9023 249.351C80.7273 249.126 80.5537 248.898 80.3828 248.67C80.1042 248.297 80.1802 247.768 80.5527 247.489ZM78.2637 243.959C78.6366 243.732 79.1162 243.829 79.374 244.17L79.4229 244.241C79.5655 244.476 79.7106 244.709 79.8574 244.94C80.1067 245.333 79.9905 245.855 79.5977 246.104C79.2047 246.354 78.6832 246.237 78.4336 245.845L77.9824 245.117C77.7407 244.72 77.8663 244.201 78.2637 243.959ZM77.8125 241.355C78.0235 241.77 77.8589 242.278 77.4443 242.489C77.0555 242.687 76.585 242.554 76.3535 242.195L76.3105 242.12C76.1814 241.866 76.0533 241.611 75.9287 241.354L76.6875 240.986L77.4463 240.617C77.5663 240.864 77.6881 241.111 77.8125 241.355ZM76.3193 240.228C76.738 240.024 77.2427 240.199 77.4463 240.617L75.9287 241.354C75.7256 240.936 75.9007 240.431 76.3193 240.228ZM74.7334 236.33C75.1423 236.177 75.5957 236.362 75.7852 236.745L75.8193 236.824C75.9156 237.081 76.0144 237.338 76.1152 237.593C76.2863 238.026 76.0743 238.516 75.6416 238.688C75.2089 238.859 74.7184 238.646 74.5469 238.214L74.2402 237.415C74.0773 236.979 74.2978 236.494 74.7334 236.33ZM74.7764 233.688C74.9062 234.134 74.6499 234.602 74.2031 234.732C73.7564 234.863 73.2888 234.606 73.1582 234.159L74.7764 233.688ZM73.5195 232.302C73.9687 232.18 74.4316 232.445 74.5537 232.895C74.6256 233.16 74.6998 233.425 74.7764 233.688L73.9668 233.923L73.1582 234.159C73.0787 233.886 73.0004 233.611 72.9258 233.336C72.8042 232.887 73.0704 232.424 73.5195 232.302ZM73.8066 229.673C73.8947 230.13 73.5957 230.573 73.1387 230.661C72.6818 230.749 72.2399 230.45 72.1514 229.993C72.0975 229.714 72.046 229.434 71.9971 229.153L72.8271 229.009L73.6582 228.863L73.8066 229.673ZM72.6826 228.178C73.1411 228.098 73.578 228.405 73.6582 228.863L71.9971 229.153C71.9174 228.695 72.2241 228.258 72.6826 228.178ZM101.159 226.268C101.624 226.265 102.004 226.639 102.008 227.104C102.011 227.541 101.681 227.902 101.257 227.948L101.17 227.954L100.31 227.958L100.223 227.954C99.7982 227.912 99.4656 227.554 99.4639 227.118C99.4625 226.653 99.8394 226.273 100.305 226.271L100.733 226.271L101.159 226.268ZM96.8936 226.253C97.3589 226.26 97.7313 226.643 97.7246 227.108C97.7176 227.574 97.3343 227.945 96.8691 227.938C96.5811 227.934 96.2929 227.93 96.0068 227.925C95.5416 227.916 95.171 227.531 95.1797 227.065C95.1886 226.6 95.573 226.231 96.0381 226.239C96.3218 226.245 96.6079 226.249 96.8936 226.253ZM105.424 226.19C105.889 226.177 106.278 226.543 106.292 227.009C106.305 227.474 105.938 227.862 105.473 227.876C105.187 227.884 104.898 227.892 104.61 227.899L104.591 227.057L104.569 226.214C104.855 226.207 105.14 226.199 105.424 226.19ZM104.61 227.899C104.146 227.91 103.759 227.542 103.747 227.077C103.736 226.612 104.104 226.226 104.569 226.214L104.61 227.899ZM92.6279 226.145L92.5957 226.986L92.5654 227.829C92.279 227.818 91.9929 227.807 91.709 227.795L91.6221 227.787C91.1996 227.726 90.8834 227.354 90.9014 226.918L90.9082 226.832C90.969 226.409 91.3433 226.092 91.7793 226.11L92.6279 226.145ZM92.6279 226.145C93.0929 226.162 93.4556 226.553 93.4385 227.018C93.421 227.483 93.0304 227.846 92.5654 227.829L92.6279 226.145ZM108.913 227.744C108.449 227.766 108.054 227.407 108.031 226.942C108.01 226.478 108.369 226.082 108.834 226.06L108.913 227.744ZM109.682 226.018C110.117 225.995 110.494 226.307 110.56 226.729L110.568 226.815C110.591 227.251 110.278 227.627 109.855 227.692L109.77 227.701C109.486 227.716 109.2 227.731 108.913 227.744L108.874 226.901L108.834 226.06L109.682 226.018ZM88.3721 225.935C88.8367 225.963 89.1898 226.363 89.1611 226.828C89.1323 227.293 88.7329 227.646 88.2686 227.617L88.3721 225.935ZM87.5205 225.879L88.3721 225.935L88.3193 226.775L88.2686 227.617C87.9803 227.599 87.6921 227.582 87.4072 227.562L87.3223 227.552C86.9011 227.48 86.5938 227.1 86.623 226.664C86.6544 226.2 87.0564 225.848 87.5205 225.879ZM113.208 227.488C112.744 227.521 112.34 227.172 112.307 226.708C112.274 226.244 112.623 225.841 113.087 225.807L113.208 227.488ZM113.938 225.743C114.402 225.707 114.808 226.055 114.844 226.519C114.877 226.954 114.574 227.337 114.153 227.413L114.068 227.425C113.784 227.447 113.496 227.468 113.208 227.488L113.148 226.647L113.087 225.807L113.938 225.743ZM83.2803 225.535C83.5584 225.562 83.8396 225.588 84.1221 225.613L84.207 225.626C84.6265 225.707 84.9245 226.094 84.8857 226.528C84.844 226.992 84.4344 227.335 83.9707 227.293C83.6847 227.267 83.3999 227.241 83.1182 227.214C82.655 227.169 82.3158 226.756 82.3604 226.293C82.4054 225.83 82.8173 225.491 83.2803 225.535ZM118.175 225.354C118.637 225.305 119.053 225.641 119.103 226.104C119.152 226.566 118.816 226.982 118.354 227.031C118.072 227.061 117.788 227.091 117.502 227.12C117.039 227.166 116.626 226.828 116.579 226.365C116.536 225.931 116.831 225.541 117.249 225.455L117.334 225.442C117.616 225.414 117.897 225.384 118.175 225.354ZM79.0508 225.056L79.8926 225.163C80.3544 225.221 80.6832 225.643 80.626 226.104C80.5684 226.566 80.1464 226.895 79.6846 226.838C79.3971 226.802 79.1117 226.765 78.8301 226.728L78.7451 226.712C78.3296 226.613 78.0474 226.214 78.1045 225.781C78.1656 225.32 78.5894 224.995 79.0508 225.056ZM122.398 224.832C122.859 224.766 123.287 225.087 123.353 225.548C123.414 225.98 123.136 226.383 122.722 226.485L122.637 226.502C122.355 226.542 122.07 226.581 121.783 226.62C121.322 226.682 120.897 226.358 120.835 225.896C120.773 225.435 121.098 225.011 121.559 224.948L122.398 224.832ZM69.7041 224.114C69.8218 223.664 70.2831 223.394 70.7334 223.512L71.5498 223.716C71.7505 223.764 71.9166 223.881 72.0303 224.035C72.0929 224.014 72.1588 224 72.2275 223.994C72.6915 223.957 73.0978 224.303 73.1357 224.767C73.158 225.04 73.1829 225.315 73.21 225.587C73.2557 226.05 72.9181 226.463 72.4551 226.509C71.9919 226.555 71.5786 226.217 71.5322 225.754C71.5194 225.625 71.5089 225.496 71.4971 225.366C71.387 225.385 71.2709 225.383 71.1553 225.355C70.866 225.286 70.5823 225.215 70.3066 225.143L70.2246 225.116C69.8246 224.967 69.594 224.536 69.7041 224.114ZM73.8809 225.086C73.9639 224.628 74.4034 224.324 74.8613 224.406C75.1328 224.455 75.4093 224.503 75.6895 224.551L75.7734 224.57C76.1855 224.684 76.4528 225.094 76.3799 225.524C76.3018 225.983 75.8662 226.292 75.4072 226.214L74.5605 226.065C74.1028 225.982 73.798 225.544 73.8809 225.086ZM126.582 224.14C127.039 224.052 127.481 224.352 127.568 224.81C127.656 225.267 127.356 225.708 126.899 225.796L126.054 225.953C125.596 226.035 125.157 225.731 125.074 225.273C124.997 224.844 125.26 224.431 125.671 224.313L125.755 224.293C126.035 224.243 126.311 224.192 126.582 224.14ZM130.7 223.202C131.149 223.08 131.613 223.346 131.735 223.795C131.85 224.216 131.624 224.65 131.225 224.803L131.143 224.829C130.868 224.904 130.585 224.979 130.297 225.052C129.846 225.165 129.387 224.891 129.273 224.439C129.16 223.988 129.435 223.53 129.886 223.416L130.7 223.202ZM65.7041 222.598C65.8994 222.175 66.3997 221.991 66.8223 222.186C67.0534 222.292 67.3021 222.399 67.5674 222.504C67.9999 222.676 68.2115 223.166 68.04 223.599C67.8681 224.031 67.378 224.242 66.9453 224.07L66.5195 223.896C66.3814 223.837 66.246 223.777 66.1152 223.717C65.6929 223.522 65.5092 223.02 65.7041 222.598ZM134.6 221.837C135.02 221.638 135.522 221.817 135.722 222.237C135.921 222.658 135.741 223.161 135.32 223.36C135.19 223.422 135.056 223.484 134.918 223.544L134.494 223.724C134.063 223.9 133.57 223.693 133.394 223.262C133.218 222.831 133.427 222.339 133.857 222.163C134.122 222.055 134.37 221.946 134.6 221.837ZM72.1523 219.782C72.6177 219.787 72.9912 220.168 72.9873 220.633C72.9861 220.771 72.9854 220.91 72.9854 221.048C72.9854 221.186 72.9861 221.325 72.9873 221.463C72.9912 221.928 72.6176 222.309 72.1523 222.313C71.7161 222.317 71.354 221.989 71.3066 221.564L71.3018 221.478C71.3005 221.335 71.2998 221.191 71.2998 221.048C71.2998 220.905 71.3005 220.761 71.3018 220.618L71.3066 220.531C71.354 220.107 71.7161 219.778 72.1523 219.782ZM64.6699 220.396C64.6702 220.446 64.679 220.499 64.6982 220.559L64.7217 220.643C64.8119 221.06 64.5726 221.487 64.1582 221.622C63.7159 221.766 63.2404 221.524 63.0957 221.082L63.0479 220.917C63.0071 220.751 62.9853 220.579 62.9844 220.405L64.6699 220.396ZM138.418 220.017C138.419 220.191 138.399 220.362 138.36 220.528L138.314 220.693C138.175 221.137 137.702 221.384 137.258 221.245C136.842 221.114 136.598 220.69 136.685 220.271L136.706 220.188C136.725 220.128 136.733 220.075 136.732 220.025L138.418 220.017ZM72.4551 215.587C72.9181 215.633 73.2557 216.046 73.21 216.509C73.1828 216.781 73.158 217.055 73.1357 217.329C73.0979 217.793 72.6915 218.139 72.2275 218.102C71.7635 218.064 71.4175 217.656 71.4551 217.192C71.4782 216.908 71.5041 216.624 71.5322 216.342C71.5786 215.879 71.9919 215.541 72.4551 215.587ZM73.6582 213.232C73.5781 213.691 73.1412 213.998 72.6826 213.918C72.224 213.838 71.9173 213.401 71.9971 212.942L73.6582 213.232ZM72.1514 212.103C72.2399 211.646 72.6817 211.346 73.1387 211.435C73.5957 211.523 73.8947 211.966 73.8066 212.423L73.6582 213.232L72.8271 213.087L71.9971 212.942C72.046 212.662 72.0975 212.381 72.1514 212.103ZM74.5537 209.201C74.4317 209.65 73.9688 209.916 73.5195 209.794C73.0703 209.672 72.804 209.209 72.9258 208.76L74.5537 209.201ZM73.9668 208.173L74.7764 208.408C74.6997 208.671 74.6256 208.936 74.5537 209.201L73.7402 208.98L72.9258 208.76C73.0005 208.485 73.0787 208.21 73.1582 207.937L73.9668 208.173ZM73.1582 207.937C73.2888 207.49 73.7564 207.233 74.2031 207.363C74.6499 207.494 74.9062 207.961 74.7764 208.408L73.1582 207.937ZM74.5469 203.882C74.7184 203.449 75.2089 203.237 75.6416 203.408C76.0744 203.58 76.2863 204.07 76.1152 204.503C76.0144 204.758 75.9156 205.014 75.8193 205.271L75.7852 205.351C75.5958 205.734 75.1423 205.919 74.7334 205.766C74.2977 205.602 74.0772 205.117 74.2402 204.681L74.5469 203.882ZM77.4463 201.479C77.2428 201.897 76.738 202.071 76.3193 201.868C75.9006 201.665 75.7254 201.16 75.9287 200.741L77.4463 201.479ZM76.3535 199.9C76.585 199.541 77.0555 199.409 77.4443 199.606C77.859 199.818 78.0235 200.325 77.8125 200.74C77.6881 200.985 77.5663 201.231 77.4463 201.479L76.6875 201.109L75.9287 200.741C76.0534 200.485 76.1814 200.229 76.3105 199.976L76.3535 199.9ZM78.4336 196.251C78.6832 195.858 79.2047 195.742 79.5977 195.991C79.9906 196.241 80.1067 196.762 79.8574 197.155C79.7105 197.387 79.5656 197.62 79.4229 197.854L79.374 197.926C79.1162 198.267 78.6367 198.364 78.2637 198.137C77.8662 197.895 77.7405 197.376 77.9824 196.979L78.4336 196.251ZM81.5674 193.264L82.2334 193.781C82.0649 193.998 81.8979 194.217 81.7334 194.437L81.6777 194.503C81.3885 194.817 80.9021 194.868 80.5527 194.606C80.1802 194.328 80.1041 193.799 80.3828 193.426C80.5537 193.197 80.7273 192.97 80.9023 192.745L81.5674 193.264ZM80.9023 192.745C81.1883 192.378 81.7177 192.312 82.085 192.598C82.4523 192.884 82.5191 193.414 82.2334 193.781L80.9023 192.745ZM83.7588 189.433C84.0824 189.154 84.5717 189.159 84.8887 189.459C85.2266 189.779 85.2408 190.313 84.9209 190.651L84.3604 191.255L84.2988 191.315C83.9807 191.601 83.4917 191.604 83.1689 191.311C82.8253 190.997 82.8004 190.464 83.1133 190.12C83.3055 189.909 83.5002 189.699 83.6963 189.492L83.7588 189.433ZM86.7949 186.525C87.1466 186.221 87.6793 186.258 87.9844 186.609C88.2892 186.961 88.2509 187.494 87.8994 187.799L87.2832 188.345L87.2158 188.399C86.8714 188.652 86.3843 188.608 86.0918 188.284C85.78 187.939 85.8078 187.405 86.1533 187.093L86.7949 186.525ZM90.1719 183.878C90.5521 183.61 91.078 183.7 91.3467 184.08C91.615 184.46 91.5245 184.986 91.1445 185.255C90.9204 185.413 90.6975 185.575 90.4766 185.737L90.4043 185.784C90.0365 186.001 89.5568 185.91 89.2979 185.559C89.022 185.184 89.1018 184.655 89.4766 184.379L90.1719 183.878ZM93.7988 181.583C94.2043 181.355 94.7186 181.498 94.9473 181.903C95.1757 182.309 95.0324 182.823 94.627 183.052C94.388 183.186 94.1501 183.323 93.9141 183.463C93.5132 183.7 92.9957 183.567 92.7588 183.166C92.5225 182.765 92.656 182.248 93.0566 182.012C93.3025 181.866 93.55 181.723 93.7988 181.583ZM97.6436 179.67C98.0705 179.485 98.5673 179.681 98.7529 180.107C98.9383 180.534 98.7423 181.031 98.3154 181.217C98.0639 181.326 97.8135 181.438 97.5645 181.553L97.4834 181.585C97.0794 181.723 96.6286 181.535 96.4463 181.139C96.2522 180.716 96.4374 180.215 96.8604 180.021L97.6436 179.67ZM101.391 180.03C100.95 180.179 100.471 179.943 100.322 179.502C100.173 179.061 100.41 178.583 100.851 178.434L101.391 180.03ZM101.75 178.146C102.168 178.059 102.593 178.302 102.725 178.718C102.864 179.162 102.617 179.635 102.173 179.775L101.391 180.03L101.121 179.231L100.851 178.434C101.121 178.342 101.394 178.253 101.667 178.167L101.75 178.146ZM105.826 177.094C106.282 177.002 106.727 177.298 106.819 177.754C106.911 178.21 106.616 178.655 106.16 178.747L105.355 178.919L105.271 178.934C104.846 178.984 104.444 178.706 104.349 178.28C104.247 177.826 104.532 177.376 104.986 177.273C105.265 177.211 105.546 177.151 105.826 177.094ZM110.075 176.466C110.539 176.422 110.95 176.763 110.994 177.227C111.038 177.69 110.697 178.101 110.233 178.145C109.96 178.17 109.688 178.199 109.416 178.23L109.329 178.236C108.902 178.242 108.532 177.924 108.481 177.49C108.428 177.028 108.759 176.609 109.222 176.556C109.505 176.523 109.79 176.493 110.075 176.466ZM113.939 177.971C113.801 177.971 113.663 177.972 113.525 177.974C113.06 177.978 112.679 177.604 112.674 177.139C112.669 176.673 113.043 176.292 113.508 176.287C113.651 176.286 113.796 176.285 113.939 176.285V177.971Z" fill="white"/>
</g>
</g>
<ellipse cx="84.1528" cy="224.173" rx="2.48485" ry="2.49487" fill="#B6B6B6"/>
<ellipse cx="67.5881" cy="221.678" rx="0.828283" ry="2.49487" fill="#B6B6B6"/>
<path d="M71.4727 222.515L78.2872 237.484H64.6582L71.4727 222.515Z" fill="#898886"/>
<path d="M63 242.41L67.2797 248.312L70.2506 241.655L63 242.41ZM145.267 242.982C145.583 242.835 145.72 242.459 145.572 242.143C145.425 241.827 145.049 241.691 144.733 241.838L145.267 242.982ZM68.1888 244.726L67.9428 245.307C80.2351 250.508 89.5312 252.189 104 252.189V251.558V250.927C89.6763 250.927 80.5507 249.27 68.4348 244.144L68.1888 244.726ZM104 251.558V252.189C120.456 252.189 130.211 250.012 145.267 242.982L145 242.41L144.733 241.838C129.842 248.791 120.269 250.927 104 250.927V251.558Z" fill="url(#paint0_linear_2648_22732)"/>
<path d="M141.868 185.009C141.868 193.181 135.265 199.806 127.119 199.806C118.973 199.806 112.369 193.181 112.369 185.009C112.369 176.836 118.973 170.211 127.119 170.211C135.265 170.211 141.868 176.836 141.868 185.009Z" fill="#898886"/>
<path d="M130.023 241.435L70.7891 194.959C70.9709 194.713 71.1557 194.467 71.345 194.225C83.5414 178.578 106.693 176.302 123.055 189.14C139.418 201.978 142.795 225.069 130.598 240.715C130.409 240.958 130.218 241.198 130.023 241.435Z" fill="#898886"/>
<path d="M63 280.211C63 274.688 67.4772 270.211 73 270.211H135C140.523 270.211 145 274.688 145 280.211C145 285.734 140.523 290.211 135 290.211H73C67.4772 290.211 63 285.734 63 280.211Z" fill="#E1E2E4"/>
<path d="M103.414 280.004V280.754H93.9219V280.004H103.414ZM102.242 281.879V285.16H101.316V282.629H94.9766V281.879H102.242ZM99.1133 274.719V275.797H102.453V276.535H99.1719C99.2363 277.719 100.883 278.533 102.852 278.703L102.547 279.43C100.83 279.242 99.2949 278.609 98.668 277.555C98.0352 278.609 96.5 279.242 94.7891 279.43L94.4844 278.703C96.4414 278.533 98.0879 277.719 98.1641 276.535H94.9062V275.797H98.2109V274.719H99.1133ZM109.266 275.656V276.582H111.704V274.754H112.63V282.359H111.704V279.582H109.266V280.52H104.485V275.656H109.266ZM105.399 276.418V279.781H108.364V276.418H105.399ZM112.864 284.164V284.938H105.891V281.68H106.817V284.164H112.864ZM109.266 278.82H111.704V277.355H109.266V278.82Z" fill="#262524"/>
<path d="M200 200H255V233H200V200Z" fill="#898886"/>
<path d="M185 258C185 246.954 193.954 238 205 238H247C258.046 238 267 246.954 267 258H185Z" fill="#898886"/>
<path d="M219 227H234.484V241.194C234.484 245.469 231.018 248.935 226.742 248.935C222.466 248.935 219 245.469 219 241.194V227Z" fill="#51514F"/>
<path d="M250.457 203.01V222.104C250.538 222.107 250.618 222.111 250.699 222.111C255.907 222.111 260.129 217.834 260.129 212.558C260.129 207.281 255.907 203.004 250.699 203.004C250.618 203.004 250.538 203.008 250.457 203.01Z" fill="#51514F"/>
<path d="M202.789 203.01V222.104C202.709 222.107 202.628 222.111 202.547 222.111C197.339 222.111 193.117 217.834 193.117 212.558C193.117 207.281 197.339 203.004 202.547 203.004C202.628 203.004 202.709 203.008 202.789 203.01Z" fill="#51514F"/>
<ellipse cx="227.269" cy="208.065" rx="27.7419" ry="31.6129" fill="#51514F"/>
<g style="mix-blend-mode:soft-light" opacity="0.3">
<path d="M226.97 237.7C227.57 237.7 228.057 238.188 228.058 238.788V239.354H225.882V238.788C225.882 238.187 226.369 237.7 226.97 237.7ZM226.97 232.045C227.57 232.045 228.058 232.532 228.058 233.133V234.264C228.058 234.864 227.57 235.351 226.97 235.352C226.369 235.352 225.882 234.865 225.882 234.264V233.133C225.882 232.532 226.369 232.045 226.97 232.045ZM226.97 226.389C227.57 226.389 228.057 226.876 228.058 227.477V228.607C228.058 229.208 227.57 229.696 226.97 229.696C226.369 229.696 225.882 229.208 225.882 228.607V227.477C225.882 226.876 226.369 226.389 226.97 226.389ZM226.97 220.733C227.57 220.734 228.058 221.221 228.058 221.821V222.952C228.058 223.553 227.57 224.04 226.97 224.04C226.369 224.04 225.882 223.553 225.882 222.952V221.821C225.882 221.221 226.369 220.733 226.97 220.733ZM226.97 215.077C227.57 215.077 228.058 215.564 228.058 216.165V217.296C228.058 217.897 227.57 218.384 226.97 218.384C226.369 218.384 225.882 217.897 225.882 217.296V216.165C225.882 215.564 226.369 215.077 226.97 215.077ZM226.97 209.421C227.549 209.421 228.02 209.874 228.054 210.444C228.385 210.631 228.609 210.985 228.609 211.393C228.609 211.941 228.202 212.393 227.674 212.468C227.484 212.63 227.239 212.728 226.97 212.729C226.7 212.729 226.454 212.631 226.264 212.469C225.735 212.395 225.328 211.942 225.328 211.393C225.328 210.985 225.552 210.63 225.884 210.443C225.918 209.873 226.391 209.421 226.97 209.421ZM199.889 210.305C200.489 210.305 200.976 210.792 200.977 211.393C200.977 211.993 200.489 212.48 199.889 212.48H199.336V210.305H199.889ZM205.415 210.305C206.016 210.305 206.503 210.792 206.503 211.393C206.503 211.993 206.016 212.48 205.415 212.48H204.31C203.709 212.48 203.222 211.993 203.222 211.393C203.222 210.792 203.709 210.305 204.31 210.305H205.415ZM210.941 210.305C211.542 210.305 212.029 210.792 212.029 211.393C212.029 211.993 211.542 212.48 210.941 212.48H209.836C209.235 212.48 208.748 211.993 208.748 211.393C208.748 210.792 209.235 210.305 209.836 210.305H210.941ZM216.468 210.305C217.068 210.305 217.556 210.792 217.556 211.393C217.556 211.993 217.068 212.48 216.468 212.48H215.363C214.762 212.48 214.274 211.993 214.274 211.393C214.275 210.792 214.763 210.305 215.363 210.305H216.468ZM221.995 210.305C222.595 210.305 223.083 210.792 223.083 211.393C223.083 211.993 222.596 212.48 221.995 212.48H220.89C220.289 212.48 219.802 211.993 219.802 211.393C219.802 210.792 220.289 210.305 220.89 210.305H221.995ZM233.048 210.305C233.648 210.305 234.136 210.792 234.136 211.393C234.136 211.993 233.648 212.48 233.048 212.48H231.942C231.342 212.48 230.854 211.993 230.854 211.393C230.855 210.792 231.342 210.305 231.942 210.305H233.048ZM238.574 210.305C239.175 210.305 239.662 210.792 239.662 211.393C239.662 211.993 239.175 212.48 238.574 212.48H237.469C236.868 212.48 236.381 211.993 236.381 211.393C236.381 210.792 236.868 210.305 237.469 210.305H238.574ZM244.101 210.305C244.701 210.305 245.189 210.792 245.189 211.393C245.189 211.993 244.701 212.48 244.101 212.48H242.996C242.395 212.48 241.908 211.993 241.908 211.393C241.908 210.792 242.395 210.305 242.996 210.305H244.101ZM249.628 210.305C250.228 210.305 250.716 210.792 250.716 211.393C250.716 211.993 250.228 212.48 249.628 212.48H248.522C247.922 212.48 247.435 211.993 247.435 211.393C247.435 210.792 247.922 210.305 248.522 210.305H249.628ZM254.602 212.48H254.049C253.448 212.48 252.961 211.993 252.961 211.393C252.961 210.792 253.448 210.305 254.049 210.305H254.602V212.48ZM226.97 203.766C227.57 203.766 228.058 204.253 228.058 204.854V205.984C228.058 206.585 227.57 207.072 226.97 207.072C226.369 207.072 225.882 206.585 225.882 205.984V204.854C225.882 204.253 226.369 203.766 226.97 203.766ZM226.97 198.109C227.57 198.11 228.057 198.597 228.058 199.197V200.329C228.057 200.93 227.57 201.417 226.97 201.417C226.369 201.417 225.882 200.93 225.882 200.329V199.197C225.882 198.597 226.369 198.109 226.97 198.109ZM226.97 192.454C227.57 192.454 228.058 192.941 228.058 193.542V194.673C228.058 195.274 227.57 195.761 226.97 195.761C226.369 195.761 225.882 195.274 225.882 194.673V193.542C225.882 192.941 226.369 192.454 226.97 192.454ZM226.97 186.798C227.57 186.798 228.058 187.285 228.058 187.886V189.017C228.058 189.617 227.57 190.104 226.97 190.104C226.369 190.104 225.882 189.617 225.882 189.017V187.886C225.882 187.285 226.369 186.798 226.97 186.798ZM226.97 181.142C227.57 181.142 228.057 181.629 228.058 182.229V183.361C228.057 183.962 227.57 184.449 226.97 184.449C226.369 184.449 225.882 183.962 225.882 183.361V182.229C225.882 181.629 226.369 181.142 226.97 181.142ZM228.058 177.705C228.058 178.306 227.57 178.793 226.97 178.793C226.369 178.793 225.882 178.306 225.882 177.705V177.14H228.058V177.705Z" fill="white"/>
</g>
<ellipse cx="236.665" cy="209.991" rx="2.06909" ry="2.09369" fill="#B6B6B6"/>
<ellipse cx="216.604" cy="209.991" rx="2.06909" ry="2.09369" fill="#B6B6B6"/>
<path d="M227.269 207.419L233.076 220.323H221.463L227.269 207.419Z" fill="#898886"/>
<path d="M243.923 181.665L199.348 208.71C199.235 208.537 199.124 208.362 199.015 208.185C192.011 196.8 196.315 181.515 208.628 174.044C220.941 166.574 236.6 169.748 243.604 181.132C243.713 181.309 243.82 181.487 243.923 181.665Z" fill="#898886"/>
<path d="M231.35 179.005C238.099 172.987 248.847 173.927 255.377 181.114C261.906 188.3 261.747 199.015 255.028 205.066L231.35 179.005Z" fill="#898886"/>
<path d="M200.27 218.268L200.12 206.74L198.635 208.54L200.27 218.268Z" fill="#898886"/>
<path d="M253.687 218.268L253.837 199.75L255.322 201.55L253.687 218.268Z" fill="#898886"/>
<path d="M185 280C185 274.477 189.477 270 195 270H257C262.523 270 267 274.477 267 280C267 285.523 262.523 290 257 290H195C189.477 290 185 285.523 185 280Z" fill="#E1E2E4"/>
<path d="M202.902 276.219C202.902 277.637 203.98 278.938 205.492 279.453L204.988 280.18C203.834 279.758 202.926 278.896 202.469 277.812C202.023 279.037 201.098 280.004 199.879 280.473L199.387 279.734C200.945 279.148 201.988 277.754 202 276.148V275.07H202.902V276.219ZM207.566 274.531V277.25H209.137V278.023H207.566V280.871H206.652V274.531H207.566ZM204.227 281.141C206.371 281.141 207.66 281.832 207.66 283.027C207.66 284.246 206.371 284.926 204.227 284.926C202.082 284.926 200.77 284.246 200.77 283.027C200.77 281.832 202.082 281.141 204.227 281.141ZM204.227 281.879C202.656 281.879 201.684 282.312 201.695 283.027C201.684 283.766 202.656 284.188 204.227 284.199C205.809 284.188 206.77 283.766 206.77 283.027C206.77 282.312 205.809 281.879 204.227 281.879ZM217.637 274.543V277.695H219.208V278.469H217.637V282.195H216.723V274.543H217.637ZM218.118 283.953V284.727H211.122V281.445H212.024V283.953H218.118ZM210.841 275.293V277.051H213.876V275.293H214.79V280.438H209.938V275.293H210.841ZM210.841 279.688H213.876V277.777H210.841V279.688ZM228.166 274.543V282.184H227.252V274.543H228.166ZM228.494 283.953V284.727H221.439V281.48H222.353V283.953H228.494ZM223.255 276.172C223.244 277.754 224.334 279.184 225.88 279.746L225.4 280.484C224.193 280.021 223.255 279.084 222.798 277.883C222.336 279.16 221.386 280.186 220.173 280.672L219.67 279.957C221.252 279.348 222.318 277.812 222.318 276.172V275.129H223.255V276.172ZM240.984 274.543V282.184H240.058V278.188H237.913V277.426H240.058V274.543H240.984ZM241.277 283.953V284.727H234.292V281.492H235.218V283.953H241.277ZM235.968 276.688C235.968 278.035 237.011 279.348 238.534 279.863L238.054 280.602C236.876 280.18 235.968 279.301 235.523 278.223C235.071 279.424 234.111 280.385 232.874 280.848L232.394 280.098C233.929 279.559 235.042 278.188 235.042 276.688V276.148H232.687V275.387H238.3V276.148H235.968V276.688ZM245.465 277.742C245.465 279.418 246.32 281.129 247.738 281.891L247.211 282.582C246.174 282.02 245.424 280.941 245.043 279.688C244.668 281.023 243.924 282.184 242.887 282.816L242.336 282.113C243.754 281.293 244.586 279.465 244.598 277.742V277.227H242.617V276.465H244.598V274.918H245.477V276.465H247.422V277.227H245.465V277.742ZM251.324 274.531V284.949H250.445V274.531H251.324ZM249.215 274.789V284.41H248.348V279.43H246.707V278.645H248.348V274.789H249.215Z" fill="#262524"/>
<defs>
<linearGradient id="paint0_linear_2648_22732" x1="63" y1="246.984" x2="145" y2="246.984" gradientUnits="userSpaceOnUse">
<stop offset="0.55" stop-color="#FF9142"/>
<stop offset="0.85" stop-color="#FF9142" stop-opacity="0"/>
</linearGradient>
</defs>
</svg>
