<svg width="92" height="108" viewBox="0 0 92 108" fill="none" xmlns="http://www.w3.org/2000/svg">
<path d="M46 0C59.5236 0.000175762 71.8038 5.8568 80.8613 15.3906C90.9157 25.9737 93.64 40.3422 91.1172 54.4092C91.6918 56.3743 92.001 58.4519 92.001 60.6006C92.0007 69.0389 87.2506 76.3772 80.2568 80.1328C79.162 81.6901 78.0035 83.1994 76.7812 84.6484C74.5334 87.3133 71.7413 90.0579 68.7646 92.7139L68.4932 93.4971C65.4724 102.18 57.2856 108 48.0918 108H43.9072C34.7134 108 26.5266 102.18 23.5059 93.4971L23.2324 92.7109C20.2571 90.056 17.4667 87.3123 15.2197 84.6484C13.9973 83.1992 12.8381 81.6902 11.7432 80.1328C4.74978 76.3772 0.000256223 69.0387 0 60.6006C0 58.4523 0.308492 56.3749 0.882812 54.4102C-1.64027 40.343 1.0851 25.9739 11.1396 15.3906C20.1971 5.85695 32.4766 0.000289618 46 0Z" fill="#E1E2E4"/>
<circle cx="61" cy="58" r="4" fill="#B6B6B6"/>
<circle cx="31" cy="58" r="4" fill="#B6B6B6"/>
<path opacity="0.3" d="M46 54L55 76H37L46 54Z" fill="#898886"/>
<path d="M24.7207 23.0254C25.204 23.0085 25.6987 23 26.2051 23C26.6825 23 27.1565 23.0194 27.626 23.0576L27.7061 22.0605C28.7134 22.1426 29.7026 22.3081 30.6699 22.5488L30.4287 23.5186C31.3496 23.7478 32.251 24.0508 33.1279 24.4229L33.5166 23.5039C34.4342 23.8932 35.3247 24.3544 36.1855 24.8809L35.666 25.7314C36.473 26.225 37.254 26.7806 38.0039 27.3936L38.6348 26.6211C39.4015 27.2479 40.1352 27.9314 40.834 28.666L40.1123 29.3535C40.7672 30.0421 41.3907 30.7793 41.9785 31.5605L42.7754 30.96C43.3703 31.7507 43.93 32.5833 44.4502 33.4551L43.5928 33.9668C43.8392 34.3798 44.0766 34.8025 44.3047 35.2334C44.4981 35.5987 44.7832 35.8769 45.1094 36.0625L45.6045 35.1934V35.1924C45.9563 35.3926 46.4078 35.3923 46.7598 35.1924L46.7607 35.1934L47.2559 36.0625C47.5412 35.9001 47.7949 35.6666 47.9834 35.3662L48.0605 35.2334C48.2887 34.8025 48.5261 34.3798 48.7725 33.9668L47.9141 33.4551C48.4342 32.5833 48.994 31.7506 49.5889 30.96L50.3867 31.5605C50.9745 30.7793 51.5981 30.0421 52.2529 29.3535L51.5303 28.666C52.229 27.9314 52.9628 27.2479 53.7295 26.6211L54.3613 27.3936C55.1112 26.7806 55.8923 26.225 56.6992 25.7314L56.1787 24.8809C57.0395 24.3543 57.9301 23.8932 58.8477 23.5039L59.2373 24.4229C60.1142 24.0508 61.0156 23.7478 61.9365 23.5186L61.6943 22.5488C62.6617 22.308 63.6509 22.1426 64.6582 22.0605L64.7393 23.0576C65.2087 23.0194 65.6827 23 66.1602 23C66.6537 23 67.1357 23.0094 67.6064 23.0283L67.6455 22.0303C68.6792 22.0718 69.6633 22.1584 70.6006 22.2852L70.4678 23.2744C71.4557 23.4081 72.3857 23.5883 73.2607 23.8125L73.5078 22.8457C74.5056 23.1013 75.4401 23.4116 76.3154 23.7734L75.9346 24.6963C76.8319 25.0673 77.6606 25.4935 78.4258 25.9697L78.9521 25.1221C79.8101 25.6559 80.5959 26.2507 81.3164 26.9004L80.6484 27.6426C81.3428 28.2688 81.974 28.9503 82.5469 29.6826L83.332 29.0674C83.9374 29.8412 84.4804 30.6655 84.9668 31.5352L84.0967 32.0234C84.5496 32.8333 84.9532 33.6879 85.3125 34.582L86.2383 34.209C86.6009 35.1112 86.9187 36.0477 87.1963 37.0137L86.2363 37.29C86.4966 38.1956 86.722 39.1306 86.916 40.0908L87.8945 39.8926C88.0874 40.8471 88.2504 41.8224 88.3867 42.8145L87.3965 42.9512C87.527 43.9008 87.6336 44.8681 87.7197 45.8486L88.7129 45.7607C88.7987 46.737 88.8663 47.7242 88.916 48.7188L87.9189 48.7686C87.9433 49.2551 87.9634 49.7441 87.9805 50.2344C87.9985 50.7516 88.004 51.2676 87.9971 51.7822L88.9961 51.7949C88.9817 52.864 88.914 53.9265 88.7988 54.9805L87.8076 54.873C87.6951 55.9024 87.5333 56.9234 87.3262 57.9336L88.3057 58.1338C88.0916 59.1778 87.8277 60.2095 87.5205 61.2275L86.5654 60.9395C86.2665 61.93 85.9234 62.9073 85.5381 63.8682L86.4629 64.2393C86.0669 65.2267 85.628 66.1968 85.1484 67.1475L84.2588 66.6992C83.7926 67.6235 83.2871 68.5291 82.7441 69.4131L83.5938 69.9346C83.0371 70.8408 82.4445 71.7259 81.8145 72.585L81.0088 71.9941C80.3959 72.8299 79.748 73.6417 79.0684 74.4268L79.8223 75.0791C79.1263 75.883 78.3969 76.6586 77.6377 77.4053L76.9395 76.6953C76.7546 76.8771 76.5674 77.0572 76.3789 77.2354L75.8076 77.7646L74.75 78.7246L75.4209 79.4639L73.3047 81.3848L72.6338 80.6445L70.5176 82.5654L71.1885 83.3047L69.0723 85.2256L68.4014 84.4854L66.2852 86.4062L66.957 87.1465L64.8408 89.0664L64.1689 88.3262L62.0537 90.2471L62.7246 90.9863L60.6084 92.9062L59.9375 92.167L57.8213 94.0879L58.4922 94.8271L56.376 96.7471L55.7051 96.0078L53.5889 97.9287L54.2598 98.668L52.1445 100.589L51.4727 99.8486L49.3564 101.769L50.0273 102.509L47.9121 104.429L47.2402 103.689L46.1826 104.649L45.125 103.689L44.4521 104.429L42.3369 102.509L43.0088 101.769L40.8926 99.8486L40.2197 100.589L38.1045 98.668L38.7764 97.9287L36.6602 96.0078L35.9883 96.7471L33.8721 94.8271L34.5439 94.0879L32.4277 92.167L31.7559 92.9062L29.6396 90.9863L30.3115 90.2471L28.1963 88.3262L27.5234 89.0664L25.4072 87.1465L26.0801 86.4062L23.9639 84.4854L23.292 85.2256L21.1758 83.3047L21.8477 82.5654L19.7314 80.6445L19.0596 81.3848L16.9434 79.4639L17.6152 78.7246L16.5576 77.7646L15.9854 77.2344C15.7964 77.0559 15.6091 76.8756 15.4238 76.6934L14.7236 77.4043C13.9624 76.6557 13.2316 75.8773 12.5332 75.0713L13.2881 74.4189C12.6066 73.6325 11.9569 72.8188 11.3408 71.9814L10.5352 72.5732C9.90262 71.7135 9.30641 70.8278 8.74512 69.9209L9.59375 69.3965C9.0464 68.5121 8.53428 67.6065 8.06055 66.6816L7.17285 67.1348C6.6866 66.1853 6.2388 65.2166 5.83203 64.2305L6.75488 63.8506C6.3588 62.8904 6.0021 61.9141 5.6875 60.9238L4.73535 61.2256C4.41263 60.2097 4.13188 59.1797 3.89648 58.1377L4.87207 57.918C4.64382 56.9077 4.45825 55.8864 4.31836 54.8564L3.33008 54.9893C3.18699 53.9355 3.09033 52.8729 3.04102 51.8037L4.03711 51.7588C4.01326 51.242 4.0006 50.7236 4 50.2041L4.00879 48.7061L3.00879 48.6924C3.0226 47.6756 3.05585 46.6665 3.10742 45.6689L4.10352 45.7207C4.15544 44.7166 4.22946 43.7265 4.33008 42.7559L3.33496 42.6533C3.41961 41.8367 3.5232 41.0315 3.64844 40.2402L3.74512 39.6592L4.73047 39.8301C4.90148 38.845 5.1083 37.887 5.35645 36.9619L4.39062 36.7031C4.65633 35.7127 4.96929 34.7541 5.33594 33.833L6.26367 34.2031C6.62517 33.2949 7.03995 32.4299 7.51367 31.6133L6.64844 31.1113C7.15586 30.2366 7.73139 29.4107 8.38086 28.6387L9.14551 29.2812C9.74715 28.5662 10.4168 27.902 11.1621 27.2939L10.5312 26.5205C11.2903 25.9013 12.1229 25.3372 13.0361 24.833L13.5186 25.707C14.3166 25.2664 15.1835 24.8722 16.126 24.5303L15.7852 23.5898C16.6891 23.262 17.6552 22.9813 18.6875 22.751L18.9053 23.7266C19.8072 23.5253 20.766 23.3637 21.7842 23.2441L21.667 22.251C22.6244 22.1386 23.6298 22.0642 24.6855 22.0273L24.7207 23.0254Z" fill="white" fill-opacity="0.4" stroke="#D0D0D0" stroke-width="2" stroke-miterlimit="3.99393" stroke-dasharray="3 3"/>
</svg>
