<svg width="92" height="108" viewBox="0 0 92 108" fill="none" xmlns="http://www.w3.org/2000/svg">
<path d="M46.0008 0C59.5243 0.000372363 71.8047 5.85697 80.8622 15.3906C97.2783 32.6702 94.154 60.0417 80.5516 79.7129L76.2518 93.0352C73.3724 101.955 65.069 108 55.6962 108H36.3036C26.9307 108 18.6273 101.955 15.7479 93.0352L11.4452 79.708C-2.15434 60.0372 -5.27621 32.6688 11.1385 15.3906C20.1961 5.85689 32.4772 0.000175761 46.0008 0Z" fill="#E1E2E4"/>
<circle cx="61" cy="58" r="4" fill="#B6B6B6"/>
<circle cx="31" cy="58" r="4" fill="#B6B6B6"/>
<path opacity="0.3" d="M46 54L55 76H37L46 54Z" fill="#898886"/>
<path d="M12.5817 41.942L46.1613 17.5267C46.591 17.2143 47.175 17.2216 47.5967 17.5446L79.451 41.9445C79.7908 42.2047 79.9663 42.6263 79.9115 43.0508L74.0801 88.2205C74.0299 88.6093 73.793 88.9491 73.4454 89.1306L47.4281 102.717C47.0874 102.895 46.682 102.899 46.3379 102.727L19.0081 89.1232C18.6533 88.9466 18.4086 88.6062 18.3542 88.2137L12.0987 43.0773C12.0379 42.6388 12.2236 42.2024 12.5817 41.942Z" fill="white" fill-opacity="0.4" stroke="#D0D0D0" stroke-width="2" stroke-miterlimit="3.99393"/>
</svg>
