<svg width="92" height="108" viewBox="0 0 92 108" fill="none" xmlns="http://www.w3.org/2000/svg">
<path d="M46 0C59.5235 0.00017549 71.8034 5.8475 80.8609 15.3666C98.7015 34.1164 93.4654 64.7681 76.7808 84.5177C70.0052 92.5379 58.2952 101.292 51.438 106.11C48.169 108.407 43.831 108.407 40.562 106.11C33.7048 101.292 21.9948 92.5379 15.2192 84.5177C-1.4654 64.7681 -6.70146 34.1164 11.1391 15.3666C20.1966 5.8475 32.4765 0.00017549 46 0Z" fill="#E1E2E4"/>
<circle cx="61" cy="58" r="4" fill="#B6B6B6"/>
<circle cx="31" cy="58" r="4" fill="#B6B6B6"/>
<path opacity="0.3" d="M46 54L55 76H37L46 54Z" fill="#898886"/>
<path d="M80.793 53.7168C80.8838 54.6865 80.9429 55.6695 80.9736 56.665L79.9775 56.6963C79.9924 57.1773 80 57.6614 80 58.1484C80 58.6605 79.992 59.1717 79.9756 59.6816L80.9717 59.7129C80.9381 60.7586 80.8712 61.799 80.7725 62.833L79.7803 62.7393C79.6828 63.7602 79.5537 64.7747 79.3945 65.7812L80.3818 65.9375C80.2185 66.9706 80.0215 67.9945 79.7979 69.0088L78.8242 68.7949C78.6031 69.7977 78.3522 70.7906 78.0742 71.7715L79.0332 72.043C78.7478 73.0501 78.4344 74.0448 78.0938 75.0254L77.1514 74.6982C76.8139 75.6696 76.4497 76.627 76.0605 77.5684L76.9824 77.9482C76.5819 78.9173 76.1557 79.8697 75.7051 80.8037L74.8066 80.3711C74.3591 81.2986 73.8876 82.2075 73.3936 83.0957L74.2646 83.5801C73.7541 84.4981 73.2204 85.3946 72.665 86.2676L71.8232 85.7334C71.2696 86.6037 70.6942 87.4496 70.0996 88.2695L70.9072 88.8545C70.2888 89.7073 69.65 90.5326 68.9922 91.3281L68.2236 90.6924C67.5653 91.4886 66.8883 92.2544 66.1953 92.9863L66.9199 93.6719C66.1944 94.4381 65.452 95.1699 64.6934 95.8633L64.0195 95.126C63.2566 95.8232 62.4793 96.481 61.6895 97.0957L62.3008 97.8818C61.4643 98.5328 60.6149 99.1397 59.7529 99.6963L59.2119 98.8574C58.3476 99.4155 57.4734 99.9222 56.5928 100.374L57.0469 101.261C56.1032 101.745 55.1508 102.17 54.1924 102.531L53.8408 101.598C52.8878 101.957 51.9321 102.25 50.9775 102.474L51.2041 103.446C50.1754 103.687 49.1451 103.852 48.1172 103.936L48.0371 102.939C47.5418 102.98 47.0478 103 46.5557 103C46.1043 103 45.6503 102.983 45.1943 102.949L45.1201 103.944C44.1774 103.874 43.2297 103.734 42.2793 103.532L42.4873 102.559C41.6061 102.371 40.7204 102.125 39.834 101.823L39.5107 102.77C38.619 102.466 37.73 102.106 36.8447 101.698L37.2617 100.793C36.4349 100.412 35.6107 99.9844 34.792 99.5127L34.2939 100.376C33.4769 99.9052 32.6668 99.393 31.8662 98.8408L32.4336 98.0205C31.6761 97.498 30.926 96.9382 30.1865 96.3438L29.5596 97.1211C28.8232 96.5291 28.0974 95.9044 27.3848 95.248L28.0625 94.5137C27.3807 93.8858 26.7101 93.2283 26.0537 92.543L25.332 93.2334C24.6763 92.5488 24.0353 91.8369 23.4092 91.1006L24.1699 90.4541C23.5669 89.7449 22.9781 89.0122 22.4062 88.2568L21.6113 88.8584C21.0368 88.0994 20.4781 87.3194 19.9385 86.5186L20.7676 85.9619C20.2459 85.1877 19.7411 84.3944 19.2559 83.583L18.3975 84.0947C17.9081 83.2765 17.4388 82.44 16.9893 81.5879L17.873 81.123C17.4363 80.2953 17.0194 79.4521 16.624 78.5947L15.7178 79.0117C15.3183 78.1453 14.939 77.2654 14.584 76.3721L15.5127 76.0029C15.1667 75.1322 14.8428 74.2493 14.543 73.3555L13.5967 73.6719C13.293 72.7664 13.0132 71.8501 12.7588 70.9238L13.7207 70.6592C13.4727 69.7561 13.249 68.844 13.0518 67.9238L12.0742 68.1318C11.874 67.1977 11.7028 66.2549 11.5566 65.3057L12.542 65.1543C12.3996 64.2293 12.2845 63.2978 12.1973 62.3613L11.2021 62.4531C11.1136 61.5024 11.0545 60.5463 11.0244 59.5859L12.0225 59.5557C12.0078 59.0876 12 58.6183 12 58.1484C12 57.6561 12.0083 57.1668 12.0244 56.6807L11.0273 56.6475C11.0607 55.6396 11.125 54.6445 11.2236 53.6631L12.2188 53.7637C12.3174 52.7819 12.4483 51.8141 12.6104 50.8613L11.626 50.6934C11.7948 49.7004 11.9971 48.7234 12.2295 47.7627L13.1992 47.9971C13.4306 47.0408 13.6934 46.1014 13.9854 45.1797L13.0342 44.8779C13.3381 43.9186 13.674 42.9785 14.0381 42.0576L14.9648 42.4248C15.326 41.5112 15.7172 40.617 16.1348 39.7441L15.2344 39.3135C15.6682 38.4066 16.1304 37.5219 16.6191 36.6602L17.4873 37.1523C17.9718 36.2981 18.4834 35.4668 19.0186 34.6602L18.1865 34.1084C18.7421 33.271 19.3227 32.4589 19.9268 31.6738L20.7188 32.2822C21.3178 31.5038 21.9403 30.7524 22.583 30.0293L21.8359 29.3652C22.5037 28.6139 23.1928 27.8919 23.9014 27.2012L24.5996 27.917C25.3034 27.231 26.0265 26.5767 26.7656 25.9551L26.123 25.1904C26.8936 24.5423 27.6818 23.9291 28.4844 23.3516L29.0674 24.1611C29.864 23.5879 30.6753 23.0511 31.4971 22.5527L30.9785 21.6982L30.9775 21.6973C31.8407 21.1738 32.7178 20.6936 33.6025 20.2529L34.0479 21.1465C34.9258 20.7092 35.8122 20.3152 36.7031 19.9658L36.3379 19.0342C37.2778 18.6656 38.2245 18.3472 39.1729 18.0762L39.4473 19.0352C40.3859 18.7669 41.3254 18.5499 42.2617 18.3848L42.0879 17.4023C43.0818 17.227 44.0736 17.106 45.0596 17.0459L45.1201 18.0439C45.6008 18.0146 46.0796 18 46.5557 18C47.027 18 47.4999 18.0143 47.9736 18.043L48.0332 17.0459C49.0106 17.1051 49.9901 17.2241 50.9688 17.3975L50.7959 18.3799C51.7221 18.544 52.6485 18.7601 53.5713 19.0273L53.8486 18.0693C54.7866 18.341 55.7207 18.66 56.6455 19.0303V19.0312L56.2734 19.959C57.1506 20.3102 58.0214 20.707 58.8818 21.1475L59.3369 20.2588C60.2064 20.7039 61.0654 21.1913 61.9102 21.7207L61.3799 22.5674C62.1833 23.0709 62.9742 23.6136 63.75 24.1934L64.3467 23.3936C65.1291 23.9783 65.8961 24.5993 66.6445 25.2559L65.9863 26.0068C66.7023 26.635 67.4016 27.2967 68.0811 27.9902L68.7949 27.291C69.4786 27.9889 70.1412 28.7193 70.7832 29.4785L70.0225 30.123C70.6385 30.8516 71.2333 31.6092 71.8057 32.3936L72.6113 31.8047C73.1879 32.5948 73.7419 33.4113 74.2705 34.2539L73.4258 34.7852C73.9331 35.5939 74.417 36.4268 74.875 37.2832L75.7539 36.8125C76.2154 37.6754 76.6512 38.5611 77.0596 39.4688L76.1504 39.8779C76.5422 40.7488 76.908 41.6404 77.2461 42.5518L78.1807 42.2051C78.5206 43.1213 78.8332 44.0567 79.1162 45.0107L78.1602 45.2959C78.4317 46.2114 78.6759 47.1442 78.8906 48.0938L79.8623 47.873C80.0777 48.8254 80.2657 49.7935 80.4219 50.7773L79.4365 50.9346C79.5863 51.8786 79.7078 52.8371 79.7988 53.8096L80.793 53.7168Z" fill="white" fill-opacity="0.4" stroke="#D0D0D0" stroke-width="2" stroke-miterlimit="3.99393" stroke-dasharray="3 3"/>
</svg>
