<svg width="92" height="108" viewBox="0 0 92 108" fill="none" xmlns="http://www.w3.org/2000/svg">
<path d="M46 0C59.5236 0.000175762 71.8038 5.8568 80.8613 15.3906C90.9157 25.9737 93.64 40.3422 91.1172 54.4092C91.6918 56.3743 92.001 58.4519 92.001 60.6006C92.0008 67.6521 88.6822 73.9336 83.5107 78H83.5264L77.167 94.2656C73.9284 102.549 65.9435 108 57.0498 108H34.9502C26.0565 108 18.0717 102.549 14.833 94.2656L8.47363 78H8.48926C3.31819 73.9335 0.000214111 67.6519 0 60.6006C0 58.4523 0.308492 56.3749 0.882812 54.4102C-1.64027 40.343 1.0851 25.9739 11.1396 15.3906C20.1971 5.85695 32.4766 0.000289618 46 0Z" fill="#E1E2E4"/>
<circle cx="61" cy="58" r="4" fill="#B6B6B6"/>
<circle cx="31" cy="58" r="4" fill="#B6B6B6"/>
<path opacity="0.3" d="M46 54L55 76H37L46 54Z" fill="#898886"/>
<path d="M47.5342 18.0273C48.5632 18.0615 49.5825 18.1301 50.5908 18.2314L50.4922 19.2246C51.494 19.3254 52.485 19.4589 53.4629 19.625L53.6289 18.6416C54.6433 18.8139 55.6443 19.0204 56.6309 19.2588L56.3965 20.2285C57.3736 20.4646 58.3363 20.7326 59.2822 21.0322L59.583 20.0811C60.5625 20.3913 61.5248 20.7343 62.4688 21.1084L62.1025 22.0361C63.0355 22.4059 63.9499 22.8068 64.8438 23.2373L65.2764 22.3389C66.2019 22.7846 67.1068 23.2602 67.9883 23.7666L67.4912 24.6328C68.36 25.132 69.2062 25.6606 70.0273 26.2168L70.5869 25.3887C71.4372 25.9646 72.2604 26.5716 73.0576 27.2041L72.4385 27.9854C73.2222 28.6071 73.978 29.2565 74.7051 29.9307L75.3828 29.1992C76.1347 29.8965 76.8573 30.6193 77.5469 31.3682L76.8135 32.0449C77.4898 32.7794 78.1336 33.5389 78.7441 34.3203L79.5303 33.7051C80.1608 34.5122 80.7556 35.3434 81.3145 36.1963L80.4805 36.7432C81.0258 37.5754 81.535 38.4288 82.0059 39.3018L82.8848 38.8271C83.3699 39.7265 83.815 40.6466 84.2197 41.585L83.3037 41.9814C83.6961 42.8913 84.0489 43.8191 84.3594 44.7627L85.3057 44.4512C85.6241 45.4189 85.9017 46.4023 86.1328 47.4014L85.1602 47.627C85.3824 48.5877 85.562 49.5626 85.6973 50.5498L86.6865 50.4141C86.8242 51.4194 86.9144 52.4372 86.9609 53.4658L85.9668 53.5117C85.9891 54.0052 86 54.5014 86 55C86 55.5192 85.988 56.0361 85.9639 56.5498L86.9609 56.5957C86.9105 57.6678 86.8096 58.7279 86.6602 59.7744L85.6719 59.6338C85.525 60.6622 85.3292 61.6775 85.0879 62.6768L86.0586 62.9102C85.8079 63.9486 85.5092 64.9707 85.1641 65.9746L84.2197 65.6504C83.8831 66.6292 83.5011 67.5907 83.0762 68.5322L83.9873 68.9434C83.5493 69.9138 83.0673 70.8638 82.543 71.791L81.6729 71.2988C81.1642 72.1984 80.6138 73.0762 80.0254 73.9307L80.8486 74.4971C80.2463 75.3718 79.6055 76.2228 78.9268 77.0469L78.1543 76.4111C77.9898 76.6109 77.8233 76.8093 77.6543 77.0059L77.1416 77.5908C76.8754 77.8876 76.6461 78.2081 76.4541 78.5459L77.3232 79.04C77.0046 79.6007 76.8078 80.2223 76.7324 80.8633L75.7393 80.7461C75.6945 81.1263 75.6857 81.5113 75.7119 81.8945C75.7182 81.9864 75.7238 82.0787 75.7285 82.1709L76.7246 82.1191C76.7346 82.3142 76.7418 82.5098 76.7451 82.7061L75.748 82.7236C75.7496 82.8156 75.75 82.9077 75.75 83C75.75 83.48 75.7295 83.9567 75.6885 84.4287L76.6816 84.5137C76.5936 85.5272 76.4181 86.5225 76.1602 87.4961L75.1963 87.2402C74.9526 88.1597 74.6305 89.0603 74.2354 89.9375L75.1465 90.3477C74.7351 91.261 74.2495 92.1488 73.6943 93.0068L72.8555 92.4639C72.3396 93.261 71.7598 94.0338 71.1201 94.7773L71.877 95.4277C71.2274 96.1828 70.5206 96.9076 69.7607 97.5986L69.0889 96.8594C68.3814 97.5028 67.6248 98.1175 66.8232 98.6992L67.4092 99.5068C66.604 100.091 65.7567 100.643 64.8701 101.159L64.3682 100.297C63.535 100.782 62.6653 101.235 61.7627 101.653L62.1816 102.56C61.2774 102.979 60.3424 103.365 59.3789 103.714L59.0391 102.774C58.1275 103.104 57.1891 103.401 56.2275 103.662L56.4893 104.626C55.5261 104.887 54.5404 105.113 53.5352 105.303L53.3506 104.321C52.3945 104.501 51.4197 104.647 50.4287 104.757L50.5381 105.75C49.5449 105.86 48.5364 105.934 47.5146 105.971L47.4795 104.974C46.9894 104.991 46.4961 105 46 105C45.5039 105 45.0106 104.991 44.5205 104.974L44.4844 105.971C43.4627 105.934 42.4541 105.86 41.4609 105.75L41.5713 104.757C40.5803 104.647 39.6055 104.501 38.6494 104.321L38.4639 105.303C37.4586 105.113 36.4729 104.887 35.5098 104.626L35.7725 103.662C34.8109 103.401 33.8725 103.104 32.9609 102.774L32.6201 103.714C31.6566 103.365 30.7216 102.979 29.8174 102.56L30.2373 101.653C29.3347 101.235 28.465 100.782 27.6318 100.297L27.1289 101.159C26.2424 100.643 25.395 100.091 24.5898 99.5068L25.1768 98.6992C24.3752 98.1175 23.6186 97.5028 22.9111 96.8594L22.2383 97.5986C21.4785 96.9076 20.7716 96.1828 20.1221 95.4277L20.8799 94.7773C20.2402 94.0338 19.6604 93.261 19.1445 92.4639L18.3047 93.0068C17.7496 92.1489 17.2639 91.261 16.8525 90.3477L17.7646 89.9375C17.3695 89.0603 17.0474 88.1597 16.8037 87.2402L15.8389 87.4961C15.5809 86.5226 15.4054 85.5272 15.3174 84.5137L16.3115 84.4287C16.2705 83.9567 16.25 83.48 16.25 83C16.25 82.9077 16.2504 82.8156 16.252 82.7236L15.2539 82.7061C15.2572 82.5098 15.2645 82.3142 15.2744 82.1191L16.2715 82.1699L16.2871 81.8945C16.3066 81.6072 16.3064 81.3187 16.2861 81.0322L16.2598 80.7461L15.2666 80.8623C15.1909 80.2215 14.9934 79.6005 14.6748 79.04H14.6758L15.5449 78.5459C15.353 78.2082 15.1244 77.8875 14.8584 77.5908L14.3447 77.0059C14.1758 76.8093 14.0092 76.6108 13.8447 76.4111L13.0723 77.0469C12.3934 76.2226 11.7518 75.372 11.1494 74.4971L11.9736 73.9307C11.3853 73.0762 10.8358 72.1983 10.3271 71.2988L9.45605 71.79C8.93176 70.8627 8.44961 69.9128 8.01172 68.9424L8.92383 68.5322C8.49893 67.5906 8.11683 66.6293 7.78027 65.6504L6.83496 65.9746C6.48985 64.9708 6.19112 63.9486 5.94043 62.9102L6.91113 62.6758C6.66994 61.6767 6.47498 60.662 6.32812 59.6338L5.33887 59.7744C5.18942 58.7279 5.08851 57.6677 5.03809 56.5957L6.03613 56.5498C6.01196 56.0361 6 55.5192 6 55C6 54.5014 6.01091 54.0052 6.0332 53.5117L5.03809 53.4658C5.08458 52.4372 5.17479 51.4194 5.3125 50.4141L6.30273 50.5498C6.43797 49.5626 6.61762 48.5877 6.83984 47.627L5.86621 47.4014C6.09729 46.4023 6.37496 45.4188 6.69336 44.4512L7.64062 44.7627C7.95113 43.8191 8.30389 42.8913 8.69629 41.9814L7.7793 41.585C8.18401 40.6466 8.62914 39.7265 9.11426 38.8271L9.99414 39.3018C10.465 38.4288 10.9742 37.5754 11.5195 36.7432L10.6846 36.1963C11.2434 35.3434 11.8382 34.5122 12.4688 33.7051L13.2559 34.3203C13.8664 33.5389 14.5102 32.7794 15.1865 32.0449L14.4521 31.3682C15.1417 30.6193 15.8643 29.8965 16.6162 29.1992L17.2949 29.9307C18.022 29.2565 18.7778 28.6071 19.5615 27.9854L18.9414 27.2041C19.7386 26.5716 20.5618 25.9646 21.4121 25.3887L21.9727 26.2168C22.7938 25.6606 23.64 25.132 24.5088 24.6328L24.0107 23.7666C24.8922 23.2602 25.7972 22.7847 26.7227 22.3389L27.1562 23.2373C28.0501 22.8068 28.9645 22.4059 29.8975 22.0361L29.5303 21.1084C30.4742 20.7343 31.4365 20.3914 32.416 20.0811L32.7178 21.0322C33.6637 20.7326 34.6264 20.4646 35.6035 20.2285L35.3682 19.2588C36.3547 19.0204 37.3557 18.8139 38.3701 18.6416L38.5371 19.625C39.515 19.4589 40.506 19.3254 41.5078 19.2246L41.4082 18.2314C42.4165 18.13 43.4358 18.0615 44.4648 18.0273L44.498 19.0244C44.9963 19.0079 45.4972 19 46 19C46.5028 19 47.0037 19.0079 47.502 19.0244L47.5342 18.0273Z" fill="white" fill-opacity="0.4" stroke="#D0D0D0" stroke-width="2" stroke-miterlimit="3.99393" stroke-dasharray="3 3"/>
</svg>
