<svg width="92" height="108" viewBox="0 0 92 108" fill="none" xmlns="http://www.w3.org/2000/svg">
<path d="M46 0C59.5236 0.000175762 71.8038 5.8568 80.8613 15.3906C90.9157 25.9737 93.64 40.3422 91.1172 54.4092C91.6918 56.3743 92.001 58.4519 92.001 60.6006C92.0008 67.6521 88.6822 73.9336 83.5107 78H83.5264L77.167 94.2656C73.9284 102.549 65.9435 108 57.0498 108H34.9502C26.0565 108 18.0717 102.549 14.833 94.2656L8.47363 78H8.48926C3.31819 73.9335 0.000214111 67.6519 0 60.6006C0 58.4523 0.308492 56.3749 0.882812 54.4102C-1.64027 40.343 1.0851 25.9739 11.1396 15.3906C20.1971 5.85695 32.4766 0.000289618 46 0Z" fill="#E1E2E4"/>
<circle cx="61" cy="58" r="4" fill="#B6B6B6"/>
<circle cx="31" cy="58" r="4" fill="#B6B6B6"/>
<path opacity="0.3" d="M46 54L55 76H37L46 54Z" fill="#898886"/>
<path d="M46 19C68.1904 19 86 35.2118 86 55C86 63.5451 82.6906 71.4037 77.1416 77.5908C76.067 78.7891 75.6072 80.3616 75.7119 81.8945C75.7369 82.2608 75.75 82.6293 75.75 83C75.75 88.9648 72.5199 94.4423 67.1445 98.4629C61.769 102.484 54.2965 105 46 105C37.7035 105 30.231 102.484 24.8555 98.4629C19.4801 94.4423 16.25 88.9648 16.25 83C16.25 82.6293 16.2623 82.2607 16.2871 81.8945C16.3912 80.3619 15.9328 78.789 14.8584 77.5908C9.30969 71.4037 6 63.545 6 55C6 35.2118 23.8096 19 46 19Z" fill="white" fill-opacity="0.4" stroke="#D0D0D0" stroke-width="2" stroke-miterlimit="3.99393"/>
</svg>
