<svg width="90" height="108" viewBox="0 0 90 108" fill="none" xmlns="http://www.w3.org/2000/svg">
<path d="M45 0C58.2296 0.000175762 70.2429 5.85677 79.1035 15.3906C88.9396 25.9741 91.6043 40.3436 89.1357 54.4111C89.6974 56.3757 90 58.4525 90 60.6006C89.9999 69.0381 85.3541 76.3759 78.5137 80.1318C77.4423 81.6897 76.3085 83.1998 75.1123 84.6494C68.484 92.6821 57.0284 101.45 50.3203 106.275C47.1224 108.576 42.8786 108.576 39.6807 106.275C32.9726 101.45 21.5171 92.682 14.8887 84.6494C13.6924 83.1997 12.5578 81.6898 11.4863 80.1318C4.64579 76.376 0.00014212 69.0382 0 60.6006C0 58.4519 0.302212 56.3743 0.864258 54.4092C-1.60367 40.3423 1.06175 25.9737 10.8975 15.3906C19.758 5.85691 31.7706 0.000254778 45 0Z" fill="#E1E2E4"/>
<circle cx="60" cy="58" r="4" fill="#B6B6B6"/>
<circle cx="30" cy="58" r="4" fill="#B6B6B6"/>
<path opacity="0.3" d="M45 54L54 76H36L45 54Z" fill="#898886"/>
<path d="M2.84353 63.885L44.1441 20.891C44.6111 20.4048 45.3889 20.4048 45.8559 20.891L87.1565 63.885C87.6188 64.3663 87.5935 65.1341 87.1005 65.5839L45.8 103.27C45.3468 103.684 44.6532 103.684 44.2 103.27L2.89946 65.5839C2.40648 65.1341 2.3812 64.3663 2.84353 63.885Z" fill="#FF9142" fill-opacity="0.2" stroke="#FF9142" stroke-width="2" stroke-miterlimit="3.99393" stroke-dasharray="3 3"/>
</svg>
