<svg width="92" height="108" viewBox="0 0 92 108" fill="none" xmlns="http://www.w3.org/2000/svg">
<path d="M46 0C59.5235 0.00017549 71.8034 5.8475 80.8609 15.3666C98.7015 34.1164 93.4654 64.7681 76.7808 84.5177C70.0052 92.5379 58.2952 101.292 51.438 106.11C48.169 108.407 43.831 108.407 40.562 106.11C33.7048 101.292 21.9948 92.5379 15.2192 84.5177C-1.4654 64.7681 -6.70146 34.1164 11.1391 15.3666C20.1966 5.8475 32.4765 0.00017549 46 0Z" fill="#E1E2E4"/>
<circle cx="61" cy="58" r="4" fill="#B6B6B6"/>
<circle cx="31" cy="58" r="4" fill="#B6B6B6"/>
<path opacity="0.3" d="M46 54L55 76H37L46 54Z" fill="#898886"/>
<path d="M46.5557 18C62.4732 18.0001 79.9999 34.5724 80 58.1484C80 69.9204 75.6166 81.1717 69.2002 89.4717C62.7632 97.7982 54.4122 103 46.5557 103C38.6897 103 30.0578 97.7883 23.3428 89.4561C16.6497 81.151 12 69.9043 12 58.1484C12.0001 34.6131 30.6007 18 46.5557 18Z" fill="#FF9142" fill-opacity="0.2" stroke="#FF9142" stroke-width="2" stroke-miterlimit="3.99393"/>
</svg>
