<svg width="92" height="108" viewBox="0 0 92 108" fill="none" xmlns="http://www.w3.org/2000/svg">
<path d="M46 0C59.5236 0.000175762 71.8038 5.8568 80.8613 15.3906C90.9157 25.9737 93.64 40.3422 91.1172 54.4092C91.6918 56.3743 92.001 58.4519 92.001 60.6006C92.0007 69.0389 87.2506 76.3772 80.2568 80.1328C79.162 81.6901 78.0035 83.1994 76.7812 84.6484C74.5334 87.3133 71.7413 90.0579 68.7646 92.7139L68.4932 93.4971C65.4724 102.18 57.2856 108 48.0918 108H43.9072C34.7134 108 26.5266 102.18 23.5059 93.4971L23.2324 92.7109C20.2571 90.056 17.4667 87.3123 15.2197 84.6484C13.9973 83.1992 12.8381 81.6902 11.7432 80.1328C4.74978 76.3772 0.000256223 69.0387 0 60.6006C0 58.4523 0.308492 56.3749 0.882812 54.4102C-1.64027 40.343 1.0851 25.9739 11.1396 15.3906C20.1971 5.85695 32.4766 0.000289618 46 0Z" fill="#E1E2E4"/>
<circle cx="61" cy="58" r="4" fill="#B6B6B6"/>
<circle cx="31" cy="58" r="4" fill="#B6B6B6"/>
<path opacity="0.3" d="M46 54L55 76H37L46 54Z" fill="#898886"/>
<path d="M66.1602 23C75.2572 23 80.4861 26.256 83.5693 31.1367C86.7141 36.1148 87.7265 42.9327 87.9805 50.2344C88.3452 60.7234 83.5238 70.7621 75.8076 77.7646L46.1826 104.649L16.5576 77.7646C8.84322 70.7637 4.01216 60.726 4 50.2041C3.99163 42.889 4.7082 36.0924 7.80176 31.1338C10.829 26.2815 16.2633 23 26.2051 23C33.6756 23 40.3596 27.7821 44.3047 35.2334C45.0885 36.7137 47.2767 36.7137 48.0605 35.2334C52.0057 27.7821 58.6896 23 66.1602 23Z" fill="#FF9142" fill-opacity="0.2" stroke="#FF9142" stroke-width="2" stroke-miterlimit="3.99393"/>
</svg>
